<svg width="218" height="345" viewBox="0 0 218 345" fill="none" xmlns="http://www.w3.org/2000/svg">
<path d="M92.1302 311.787C92.1302 311.787 53.3623 322.911 48.015 324.921C43.0687 326.663 29.7005 331.354 19.6743 329.879C18.7385 329.745 17.6691 329.477 16.867 329.209C6.70709 326.127 2.16189 323.313 0.825066 317.014C-0.511759 310.581 4.56817 305.89 9.38074 302.942C14.1933 299.86 40.6624 296.777 40.6624 296.777L47.0792 298.654L92.1302 311.787Z" fill="#1340B6"/>
<path d="M19.6743 329.745C18.7385 329.611 17.669 329.343 16.8669 329.075C6.70709 325.993 2.16189 323.179 0.825066 316.88C-0.511757 310.447 4.56816 305.757 9.38073 302.808C14.1933 299.726 40.6624 296.644 40.6624 296.644L47.0791 298.52C41.3308 301.2 19.8079 302.674 15.1291 305.355C10.4502 308.035 8.17758 313.128 10.9849 320.096C12.3217 323.715 16.3322 327.333 19.6743 329.745Z" fill="white"/>
<path d="M86.2482 313.395C86.2482 313.395 57.1054 320.9 45.6087 325.859C34.112 330.684 12.0544 332.828 4.16714 322.777C-3.72013 312.859 3.23136 304.148 11.1186 302.272C19.0059 300.396 34.7804 297.314 43.4698 298.52" stroke="#263238" stroke-width="1.1031" stroke-miterlimit="10" stroke-linecap="round" stroke-linejoin="round"/>
<path d="M20.209 329.209C20.209 329.209 5.37023 321.034 10.3165 309.643C13.9259 301.2 33.7109 303.076 43.4697 298.386" stroke="#263238" stroke-width="1.1031" stroke-miterlimit="10" stroke-linecap="round" stroke-linejoin="round"/>
<path d="M210.172 331.622C209.771 335.642 208.434 339.395 204.424 341.807C201.75 343.415 198.007 344.353 192.526 344.219C178.89 344.085 153.357 334.302 153.357 334.302L129.428 321.034L141.86 301.334L145.202 295.973L154.025 297.984C154.025 297.984 161.244 302.138 168.597 305.355C175.949 308.705 193.729 309.375 200.012 314.468C206.295 319.426 210.84 324.921 210.172 331.622Z" fill="#1340B6"/>
<path d="M210.172 331.622C209.771 335.642 208.434 339.395 204.424 341.807C205.226 338.725 205.76 334.436 203.755 329.879C201.081 323.849 192.392 318.622 180.895 317.684C169.532 316.746 160.709 311.385 156.164 308.973C152.555 307.097 145.068 303.076 141.86 301.334L145.202 295.973L154.025 297.984C154.025 297.984 161.244 302.138 168.597 305.355C175.949 308.705 193.729 309.375 200.012 314.468C206.295 319.426 210.84 324.921 210.172 331.622Z" fill="white"/>
<path d="M134.641 324.787C151.619 334.57 171.137 341.673 190.654 343.951C195.066 344.487 200.012 344.487 202.953 341.271C204.557 339.394 205.226 336.848 204.958 334.436C204.424 328.271 199.21 323.447 193.595 320.9C187.981 318.488 181.697 317.818 175.682 316.478C169.666 315.138 163.918 312.993 158.437 310.179C154.159 307.901 149.881 305.22 145.202 304.148C140.39 303.076 134.775 304.416 132.235 308.571" stroke="#263238" stroke-width="1.1031" stroke-miterlimit="10" stroke-linecap="round" stroke-linejoin="round"/>
<path d="M201.483 342.879C205.894 340.601 209.503 336.446 210.172 331.488C210.974 325.725 207.766 319.828 203.087 316.21C198.408 312.591 192.659 310.983 186.911 309.777C181.163 308.571 175.281 307.767 169.8 305.623C161.378 302.272 153.089 295.839 144.4 298.118" stroke="#263238" stroke-width="1.1031" stroke-miterlimit="10" stroke-linecap="round" stroke-linejoin="round"/>
<path d="M161.645 117.196L121.139 101.785L120.605 101.651C120.605 101.651 120.738 100.578 120.872 98.9702C121.139 95.7538 121.273 90.3932 119.803 88.651C117.53 85.9707 111.113 88.249 104.964 85.3006C98.6807 82.4863 87.184 87.5789 87.184 87.5789C87.184 87.5789 78.8957 86.1047 75.1526 92.1354C73.281 96.96 73.9494 104.197 73.9494 104.197C73.9494 104.197 73.6821 104.331 73.1473 104.465C68.3348 106.207 42.133 116.124 36.5183 120.145C30.3689 124.567 23.5511 169.194 21.4122 182.328C19.2733 195.462 15.3965 207.255 17.268 211.812C19.2733 216.368 47.4803 238.079 63.6559 243.707C79.8315 249.336 137.449 247.728 137.449 247.728C137.449 247.728 138.384 247.46 140.122 246.924C149.881 243.841 184.371 230.842 202.686 200.42C202.686 200.42 185.04 142.123 161.645 117.196ZM52.2929 192.379C49.3519 194.523 50.956 202.698 50.956 202.698L45.8761 198.276L58.5759 166.916L64.0569 191.039C64.0569 190.905 55.2339 190.235 52.2929 192.379ZM154.159 212.348C152.822 213.018 158.169 198.008 155.629 194.523C153.089 191.039 145.336 191.441 145.336 191.441L146.004 187.287C146.138 186.885 150.55 163.7 150.55 163.7L152.02 161.824C152.02 161.824 167.795 188.895 170.602 198.41C170.602 198.544 153.357 212.348 154.159 212.348Z" fill="#0F65B2"/>
<path d="M85.3124 19.3647L64.458 41.6114C64.458 41.6114 61.5169 44.1577 62.7201 50.5904C63.9232 57.0232 66.5969 62.6519 68.6021 63.0539C70.6074 63.456 73.4147 63.456 73.4147 63.456C73.4147 63.456 77.9599 73.2391 81.0346 76.9915C81.0346 76.9915 82.104 92.0013 81.5693 96.1558C81.5693 96.1558 89.0555 102.723 96.1407 103.527C103.226 104.331 114.188 93.4755 114.188 93.4755L116.861 80.2079C116.861 80.2079 123.278 70.4248 123.679 67.8785C124.08 65.3322 127.021 66.0023 128.492 64.6621C129.962 63.3219 133.304 57.6933 133.839 52.1986C134.374 46.838 134.374 40.5393 128.091 42.4155C122.61 40.9413 126.086 29.4159 126.086 29.4159L116.594 20.973L85.3124 19.3647Z" fill="white"/>
<path opacity="0.5" d="M121.273 101.651C121.006 102.455 120.605 103.259 120.204 104.063C116.728 110.63 101.755 122.959 101.755 122.959L97.2102 109.021L94.6702 122.959C89.5902 120.815 74.3504 107.547 74.3504 107.547C74.3504 107.547 73.8157 106.341 73.1473 104.331C73.682 104.197 73.9494 104.063 73.9494 104.063C73.9494 104.063 73.281 96.826 75.1525 92.0014C78.7619 85.9707 87.184 87.4448 87.184 87.4448C87.184 87.4448 98.6807 82.3523 104.964 85.1666C111.247 87.9809 117.664 85.8367 119.803 88.517C122.075 91.1973 120.738 101.517 120.738 101.517L121.273 101.651Z" fill="white"/>
<path opacity="0.2" d="M161.645 117.196L121.139 101.784L120.605 101.65C120.605 101.65 120.738 100.578 120.872 98.9701L120.07 104.197L114.054 112.372C114.054 112.372 124.214 115.99 132.77 120.681C138.785 123.897 142.127 130.33 141.325 137.031L133.839 200.956L130.764 237.274L139.989 246.924C149.747 243.841 184.237 230.842 202.552 200.42C202.686 200.42 185.04 142.123 161.645 117.196ZM154.159 212.347C152.822 213.018 158.169 198.008 155.629 194.523C153.089 191.039 145.336 191.441 145.336 191.441L146.004 187.287C146.138 186.884 150.549 163.7 150.549 163.7L152.02 161.824C152.02 161.824 167.794 188.895 170.602 198.41C170.602 198.544 153.357 212.347 154.159 212.347Z" fill="black"/>
<path opacity="0.2" d="M66.7304 194.523L60.4474 173.483C60.4474 173.483 49.2181 134.886 41.4645 125.371L43.4697 152.576C43.4697 152.576 36.7856 185.008 30.6363 194.657C24.4869 204.307 23.1501 206.719 30.6363 206.719C38.1225 206.719 56.3032 221.193 56.3032 221.193L54.9664 209.131L66.7304 194.523ZM50.956 202.698L45.876 198.276L58.5758 166.916L64.0568 191.039C64.0568 191.039 55.3675 190.369 52.4264 192.513C49.3518 194.523 50.956 202.698 50.956 202.698Z" fill="black"/>
<path d="M80.9009 76.9916C80.9009 76.9916 82.104 88.3829 80.9009 93.6095" stroke="#263238" stroke-width="1.1031" stroke-miterlimit="10" stroke-linecap="round" stroke-linejoin="round"/>
<path d="M115.124 92.0013C115.124 92.0013 115.124 86.5066 116.327 81.146" stroke="#263238" stroke-width="1.1031" stroke-miterlimit="10" stroke-linecap="round" stroke-linejoin="round"/>
<path d="M118.198 27.8077C118.198 27.8077 125.016 36.5188 124.749 42.9515C124.348 49.5183 123.813 57.2912 124.08 64.7961C124.214 72.435 111.915 88.2489 105.632 89.7231C99.3491 91.1972 93.8682 91.4653 89.724 87.4448C85.7135 83.4243 81.5694 77.7957 76.3558 70.5588C71.0085 63.322 72.3453 47.5081 72.3453 47.5081" stroke="#263238" stroke-width="1.1031" stroke-miterlimit="10" stroke-linecap="round" stroke-linejoin="round"/>
<path d="M101.755 53.4048C101.354 55.8171 101.221 58.2294 101.221 60.6417C101.221 62.6519 101.622 64.7962 102.959 66.2703C103.761 67.0744 104.83 67.6105 104.964 68.6826C105.097 69.6207 104.429 70.5589 103.493 70.9609C102.691 71.497 101.755 71.765 100.953 72.4351" stroke="#263238" stroke-width="1.1031" stroke-miterlimit="10" stroke-linecap="round" stroke-linejoin="round"/>
<path d="M90.7934 73.3732C90.7934 73.3732 91.5955 78.4658 98.4132 79.538" stroke="#263238" stroke-width="1.1031" stroke-miterlimit="10" stroke-linecap="round" stroke-linejoin="round"/>
<path d="M91.4618 57.2912C91.4618 58.7654 90.7934 59.9716 89.9913 59.9716C89.1892 59.9716 88.5208 58.7654 88.5208 57.2912C88.5208 55.817 89.1892 54.6108 89.9913 54.6108C90.927 54.6108 91.4618 55.817 91.4618 57.2912Z" fill="#263238"/>
<path d="M111.915 57.9613C111.915 59.4355 111.247 60.6417 110.445 60.6417C109.643 60.6417 108.974 59.4355 108.974 57.9613C108.974 56.4872 109.643 55.281 110.445 55.281C111.381 55.281 111.915 56.4872 111.915 57.9613Z" fill="#263238"/>
<path d="M107.905 51.5286C107.905 51.5286 114.589 44.8278 120.203 52.3327" stroke="#263238" stroke-width="2.2062" stroke-miterlimit="10" stroke-linecap="round" stroke-linejoin="round"/>
<path d="M93.7345 51.6625C93.7345 51.6625 89.4567 46.9719 82.9062 51.6625" stroke="#263238" stroke-width="2.2062" stroke-miterlimit="10" stroke-linecap="round" stroke-linejoin="round"/>
<path d="M81.4356 83.2902C81.4356 83.2902 85.446 94.5476 94.6701 97.764C103.761 100.98 115.926 84.3624 115.926 84.3624L115.257 82.2181C115.257 82.2181 107.37 92.5373 98.5469 90.7951C89.7239 89.0529 81.0345 77.1255 81.0345 77.1255L81.4356 83.2902Z" fill="#263238"/>
<path d="M73.281 63.0539C73.281 63.0539 67.8 64.9302 66.4632 60.7757C64.9927 56.4872 60.0464 45.3639 64.4579 41.6114C68.7358 37.859 72.2115 46.57 72.2115 46.57" stroke="#263238" stroke-width="1.1031" stroke-miterlimit="10" stroke-linecap="round" stroke-linejoin="round"/>
<path d="M124.08 65.3322C124.08 65.3322 129.16 66.4044 130.631 62.1158C132.101 57.8273 137.048 46.704 132.636 42.9515C128.358 39.199 124.882 47.9101 124.882 47.9101" stroke="#263238" stroke-width="1.1031" stroke-miterlimit="10" stroke-linecap="round" stroke-linejoin="round"/>
<path d="M72.2115 57.2912C73.682 57.1572 76.222 55.8171 77.0241 54.4769C77.8262 53.1367 78.0936 51.6625 78.3609 50.1884C78.8957 47.374 79.163 44.4257 79.163 41.6114C79.163 40.5392 79.163 39.3331 79.4304 38.261C79.8314 37.1888 80.4998 36.1167 81.3019 35.3126C83.1735 33.0343 85.4461 31.1581 87.3176 28.8799C89.0555 26.6016 90.3923 23.6532 89.9913 20.8389C89.9913 20.8389 102.29 32.0962 120.07 28.6118C129.561 26.7356 138.785 18.2926 137.716 7.83936C137.315 4.08692 134.508 1.4066 131.032 0.46849C126.353 -0.737653 122.075 1.80864 117.797 3.41683C110.044 6.36518 102.424 1.27259 94.5365 0.46849C87.8524 -0.20159 79.5641 0.602494 76.0883 7.30329C76.0883 7.30329 63.9232 8.77746 58.7096 18.6946C53.3623 28.6118 63.5222 42.4155 63.5222 42.4155C63.5222 42.4155 67.5326 37.4569 72.7463 47.508L72.2115 57.2912Z" fill="#263238"/>
<path d="M119 25.2614C119 25.2614 115.926 41.6113 124.08 49.5183C124.08 49.5183 125.818 44.5597 127.69 43.3535C127.69 43.3535 132.235 34.7765 126.219 25.2614C120.204 15.7463 119 25.2614 119 25.2614Z" fill="#263238"/>
<path opacity="0.2" d="M133.973 6.6333C132.77 11.1898 129.027 14.6742 124.615 16.4164C113.252 21.107 102.29 15.8804 90.9271 14.9423C81.7029 14.1382 71.4094 22.4471 70.741 32.0963" stroke="white" stroke-width="1.1031" stroke-miterlimit="10" stroke-linecap="round" stroke-linejoin="round"/>
<path opacity="0.2" d="M63.7895 29.416C63.9231 21.9111 68.8694 14.6742 75.821 11.8599" stroke="white" stroke-width="1.1031" stroke-miterlimit="10" stroke-linecap="round" stroke-linejoin="round"/>
<path d="M78.3609 92.0014C78.3609 92.0014 85.8471 100.31 96.007 104.063C96.007 104.063 109.643 100.176 116.461 90.6613" stroke="#263238" stroke-width="1.1031" stroke-miterlimit="10" stroke-linecap="round" stroke-linejoin="round"/>
<path d="M92.197 68.2449C98.2371 65.4677 100.888 58.3078 98.1176 52.2526C95.3474 46.1974 88.2053 43.54 82.1652 46.3172C76.1251 49.0943 73.4743 56.2543 76.2445 62.3094C79.0147 68.3646 86.1569 71.022 92.197 68.2449Z" stroke="#263238" stroke-width="1.1031" stroke-miterlimit="10" stroke-linecap="round" stroke-linejoin="round"/>
<path d="M115.494 69.2505C122.089 68.4385 126.778 62.4206 125.968 55.8092C125.158 49.1978 119.155 44.4965 112.56 45.3085C105.965 46.1205 101.276 52.1384 102.086 58.7498C102.896 65.3612 108.899 70.0625 115.494 69.2505Z" stroke="#263238" stroke-width="1.1031" stroke-miterlimit="10" stroke-linecap="round" stroke-linejoin="round"/>
<path d="M80.901 87.5787C80.901 87.5787 77.2915 88.3828 75.1526 92.1353C73.0137 95.8877 74.3505 107.681 74.3505 107.681C74.3505 107.681 85.3125 118.536 94.6702 123.093L97.4775 107.547L101.755 123.093C101.755 123.093 116.193 112.774 120.204 104.197C120.204 104.197 121.54 94.1455 120.204 90.7951C118.867 87.4447 115.926 87.5787 115.926 87.5787" stroke="#263238" stroke-width="1.1031" stroke-miterlimit="10" stroke-linecap="round" stroke-linejoin="round"/>
<path d="M63.7895 191.441C63.7895 191.441 59.5117 162.628 53.7634 150.834" stroke="#263238" stroke-width="1.1031" stroke-miterlimit="10" stroke-linecap="round" stroke-linejoin="round"/>
<path d="M41.4645 125.371C41.4645 125.371 46.9455 133.01 50.2876 140.247" stroke="#263238" stroke-width="1.1031" stroke-miterlimit="10" stroke-linecap="round" stroke-linejoin="round"/>
<path d="M154.159 146.814C155.629 141.051 157.234 136.092 158.838 132.742" stroke="#263238" stroke-width="1.1031" stroke-miterlimit="10" stroke-linecap="round" stroke-linejoin="round"/>
<path d="M145.202 191.441C145.202 191.441 148.277 171.741 152.02 155.391" stroke="#263238" stroke-width="1.1031" stroke-miterlimit="10" stroke-linecap="round" stroke-linejoin="round"/>
<path d="M150.549 163.7C153.491 159.813 157.768 156.865 162.447 155.525" stroke="#263238" stroke-width="1.1031" stroke-miterlimit="10" stroke-linecap="round" stroke-linejoin="round"/>
<path d="M120.738 101.516C120.738 101.516 145.603 111.434 161.779 117.196C161.779 117.196 181.564 135.825 202.819 200.42C202.819 200.42 183.435 233.254 146.405 243.707" stroke="#263238" stroke-width="1.1031" stroke-miterlimit="10" stroke-linecap="round" stroke-linejoin="round"/>
<path d="M152.688 213.42L170.602 198.41C170.602 198.41 180.093 191.173 189.852 196.132" stroke="#263238" stroke-width="1.1031" stroke-miterlimit="10" stroke-linecap="round" stroke-linejoin="round"/>
<path d="M152.02 161.958C152.02 161.958 166.859 183.802 170.602 198.544" stroke="#263238" stroke-width="1.1031" stroke-miterlimit="10" stroke-linecap="round" stroke-linejoin="round"/>
<path d="M51.0897 203.502L45.8761 198.544C45.8761 198.544 38.1225 197.204 29.2994 203.1" stroke="#263238" stroke-width="1.1031" stroke-miterlimit="10" stroke-linecap="round" stroke-linejoin="round"/>
<path d="M45.8761 198.544C45.8761 198.544 52.4266 177.101 58.7097 166.112" stroke="#263238" stroke-width="1.1031" stroke-miterlimit="10" stroke-linecap="round" stroke-linejoin="round"/>
<path d="M73.9494 104.197C73.9494 104.197 38.1225 117.732 34.6468 121.619C31.171 125.505 17.8028 200.956 17.4017 209.533C17.1344 217.306 44.9403 234.594 58.8433 241.831" stroke="#263238" stroke-width="1.1031" stroke-miterlimit="10" stroke-linecap="round" stroke-linejoin="round"/>
<path d="M203.621 92.0013H162.715C157.902 92.0013 154.025 88.1148 154.025 83.2902V59.3014C154.025 54.4768 157.902 50.5903 162.715 50.5903H203.621C208.434 50.5903 212.311 54.4768 212.311 59.3014V83.2902C212.445 88.1148 208.568 92.0013 203.621 92.0013Z" fill="white" stroke="#263238" stroke-width="1.1031" stroke-miterlimit="10" stroke-linecap="round" stroke-linejoin="round"/>
<path d="M172.875 63.0538L161.779 70.0227L172.072 79.2698" stroke="#263238" stroke-width="1.1031" stroke-miterlimit="10" stroke-linecap="round" stroke-linejoin="round"/>
<path d="M193.328 79.9398L203.488 71.3628L191.857 63.7239" stroke="#263238" stroke-width="1.1031" stroke-miterlimit="10" stroke-linecap="round" stroke-linejoin="round"/>
<path d="M178.355 85.3005L186.644 59.3014" stroke="#263238" stroke-width="1.1031" stroke-miterlimit="10" stroke-linecap="round" stroke-linejoin="round"/>
<path d="M100.686 129.66C100.686 131 99.6165 132.072 98.2796 132.072C96.9428 132.072 95.8733 131 95.8733 129.66C95.8733 128.32 96.9428 127.248 98.2796 127.248C99.6165 127.248 100.686 128.32 100.686 129.66Z" fill="#263238"/>
<path d="M142.261 255.903H60.7149C59.6454 255.903 58.8434 255.099 58.8434 254.026C58.8434 252.954 59.6454 252.15 60.7149 252.15H142.261C143.331 252.15 144.133 252.954 144.133 254.026C144.133 254.965 143.197 255.903 142.261 255.903Z" fill="#263238"/>
<path d="M145.068 249.47L156.03 198.008C156.699 194.657 154.159 191.441 150.683 191.441H55.3675C51.8917 191.441 49.3518 194.657 50.0202 198.008L59.779 247.728C60.3137 250.274 62.4527 252.016 64.9926 252.15L139.587 253.892C142.261 253.892 144.534 252.15 145.068 249.47Z" fill="white" stroke="#263238" stroke-width="1.1031" stroke-miterlimit="10" stroke-linecap="round" stroke-linejoin="round"/>
<path d="M110.311 221.059C110.311 225.213 106.969 228.698 102.691 228.698C98.4133 228.698 95.0713 225.347 95.0713 221.059C95.0713 216.77 98.4133 213.42 102.691 213.42C106.969 213.42 110.311 216.904 110.311 221.059Z" fill="#263238"/>
<path d="M125.283 196.266H136.513" stroke="#263238" stroke-width="1.1031" stroke-miterlimit="10" stroke-linecap="round" stroke-linejoin="round"/>
<path d="M71.142 196.266H114.188" stroke="#263238" stroke-width="1.1031" stroke-miterlimit="10" stroke-linecap="round" stroke-linejoin="round"/>
<path d="M145.202 304.148L136.513 327.065C136.513 327.065 114.322 321.436 85.9808 315.674C56.3033 309.509 25.289 301.736 9.24711 273.459C7.24187 269.974 6.03875 265.954 6.84084 262.067C9.11344 252.284 21.8133 249.604 30.2353 248.666C35.4489 247.996 40.7962 247.862 46.0098 247.728C48.6834 247.728 57.6402 246.254 59.7791 247.862C59.7791 247.862 65.3937 252.016 70.0726 254.026C74.7515 256.037 144.133 252.15 144.133 252.15C144.133 252.15 146.138 247.728 146.272 243.841C157.1 238.347 182.366 233.656 193.06 235.666C209.771 238.883 219.53 248.666 217.792 258.985C215.92 269.17 178.89 296.643 145.202 304.148Z" fill="#263238"/>
<path d="M145.202 304.148C145.202 304.148 124.08 298.52 106.969 286.86C89.724 275.201 76.3557 261.665 52.2929 264.48" stroke="white" stroke-width="1.1031" stroke-miterlimit="10" stroke-linecap="round" stroke-linejoin="round"/>
<path d="M102.959 284.046C113.787 280.964 121.808 273.861 130.497 267.026C139.721 259.789 149.48 252.954 160.041 247.594" stroke="white" stroke-width="1.1031" stroke-miterlimit="10" stroke-linecap="round" stroke-linejoin="round"/>
<path d="M99.2154 59.3014H102.424" stroke="#263238" stroke-width="1.1031" stroke-miterlimit="10" stroke-linecap="round" stroke-linejoin="round"/>
</svg>
