<svg width="224" height="122" viewBox="0 0 224 122" fill="none" xmlns="http://www.w3.org/2000/svg">
<path d="M222.606 21.8655V100.265C222.606 111.79 213.248 121.171 201.751 121.171H21.5472C10.0505 121.171 0.69278 111.79 0.69278 100.265V21.8655C0.69278 10.3401 10.0505 0.958984 21.5472 0.958984H201.751C213.248 0.958984 222.606 10.3401 222.606 21.8655Z" fill="white" stroke="#222221" stroke-width="1.1031" stroke-miterlimit="10"/>
<path d="M222.606 21.8654V23.6077H0.69278V21.8654C0.69278 10.3401 10.0505 0.958984 21.5472 0.958984H111.649H201.751C213.248 0.958984 222.606 10.3401 222.606 21.8654Z" fill="#0F65B2" stroke="#263238" stroke-width="1.1031" stroke-miterlimit="10"/>
<path d="M33.1776 15.9687C31.9745 17.1749 29.8355 17.1749 28.6324 15.9687C27.4292 14.7626 27.4292 12.6183 28.6324 11.4122C29.8355 10.206 31.9745 10.206 33.1776 11.4122C34.5144 12.7523 34.5144 14.7626 33.1776 15.9687Z" fill="#263238"/>
<path d="M48.1501 15.9687C46.9469 17.1749 44.808 17.1749 43.6049 15.9687C42.4017 14.7626 42.4017 12.6183 43.6049 11.4122C44.808 10.206 46.9469 10.206 48.1501 11.4122C49.3532 12.7523 49.3532 14.7626 48.1501 15.9687Z" fill="#263238"/>
<path d="M62.9888 15.9687C61.7857 17.1749 59.6468 17.1749 58.4436 15.9687C57.2405 14.7626 57.2405 12.6183 58.4436 11.4122C59.6468 10.206 61.7857 10.206 62.9888 11.4122C64.192 12.7523 64.192 14.7626 62.9888 15.9687Z" fill="#263238"/>
<path d="M87.3191 38.0814H14.7295V100.935H87.3191V38.0814Z" stroke="#263238" stroke-width="1.1031" stroke-miterlimit="10" stroke-linecap="round" stroke-linejoin="round" stroke-dasharray="4.41 4.41"/>
<path d="M182.1 38.0814H98.5484V42.5039H182.1V38.0814Z" fill="#263238"/>
<path d="M162.582 47.1945H98.5484V51.617H162.582V47.1945Z" fill="#263238"/>
<path d="M193.998 56.3075H98.5484V60.73H193.998V56.3075Z" fill="#263238"/>
<path d="M179.827 65.2866H98.5484V69.7091H179.827V65.2866Z" fill="#263238"/>
</svg>
