<svg width="485" height="303" viewBox="0 0 485 303" fill="none" xmlns="http://www.w3.org/2000/svg">
<path d="M483.864 30.3587V271.721C483.864 288.205 470.629 301.473 454.186 301.473H30.8137C14.3707 301.473 1.13615 288.205 1.13615 271.721V30.3587C1.13615 29.6886 1.13615 29.0185 1.26983 28.2144C2.3393 12.8026 15.1728 0.607178 30.8137 0.607178H454.186C469.827 0.607178 482.661 12.8026 483.73 28.2144C483.864 29.0185 483.864 29.6886 483.864 30.3587Z" fill="white" stroke="#263238" stroke-width="1.1031" stroke-miterlimit="10" stroke-linecap="round" stroke-linejoin="round"/>
<path d="M443.091 290.215H43.3799C28.0064 290.215 15.5739 277.752 15.5739 262.34V39.4718H470.897V262.34C470.897 277.752 458.464 290.215 443.091 290.215Z" fill="#263238"/>
<path opacity="0.2" d="M470.897 39.4718V262.34C470.897 277.752 458.598 290.215 443.358 290.215H43.1125C27.8727 290.215 15.5739 277.752 15.5739 262.34V39.4718H470.897Z" fill="white"/>
<path d="M483.73 28.3484H1.27027C2.33973 12.8026 15.1733 0.607178 30.8141 0.607178H454.187C469.828 0.607178 482.661 12.8026 483.73 28.3484Z" fill="#69CBF6" stroke="#263238" stroke-width="1.1031" stroke-miterlimit="10"/>
<path d="M60.4912 14.4108C60.4912 17.3592 58.0849 19.6374 55.2776 19.6374C52.3366 19.6374 50.064 17.2251 50.064 14.4108C50.064 11.4625 52.4703 9.1842 55.2776 9.1842C58.2186 9.1842 60.4912 11.5965 60.4912 14.4108Z" fill="#263238"/>
<path d="M82.6825 14.4108C82.6825 17.3592 80.2762 19.6374 77.4689 19.6374C74.5279 19.6374 72.2552 17.2251 72.2552 14.4108C72.2552 11.4625 74.6615 9.1842 77.4689 9.1842C80.4099 9.1842 82.6825 11.5965 82.6825 14.4108Z" fill="#263238"/>
<path d="M99.6602 19.6374C102.54 19.6374 104.874 17.2974 104.874 14.4108C104.874 11.5242 102.54 9.1842 99.6602 9.1842C96.7808 9.1842 94.4466 11.5242 94.4466 14.4108C94.4466 17.2974 96.7808 19.6374 99.6602 19.6374Z" fill="#263238"/>
<path d="M470.897 39.4718V262.34C470.897 277.752 458.464 290.215 443.091 290.215H43.3799C29.8779 290.215 18.6486 280.566 16.1086 267.701C15.7076 265.959 15.5739 264.216 15.5739 262.34V39.4718H470.897Z" stroke="#263238" stroke-width="1.1031" stroke-miterlimit="10"/>
</svg>
