<svg width="194" height="249" viewBox="0 0 194 249" fill="none" xmlns="http://www.w3.org/2000/svg">
<path d="M158.736 230.296H18.9041C9.27896 230.296 1.39169 222.389 1.39169 212.74V18.6854C1.39169 9.03621 9.27896 1.12927 18.9041 1.12927H158.736C168.361 1.12927 176.248 9.03621 176.248 18.6854V212.74C176.248 222.389 168.495 230.296 158.736 230.296Z" fill="#69CBF6" stroke="#263238" stroke-width="1.1031" stroke-miterlimit="10"/>
<path opacity="0.2" d="M158.736 230.296H18.9041C9.27896 230.296 1.39169 222.389 1.39169 212.74V18.6854C1.39169 9.03621 9.27896 1.12927 18.9041 1.12927H158.736C168.361 1.12927 176.248 9.03621 176.248 18.6854V212.74C176.248 222.389 168.495 230.296 158.736 230.296Z" fill="#69CBF6"/>
<path d="M192.558 35.9733V230.028C192.558 239.677 184.671 247.584 175.045 247.584H35.2134C25.5882 247.584 17.701 239.677 17.701 230.028V35.9733C17.701 26.3242 25.5882 18.4172 35.2134 18.4172H175.045C184.671 18.4172 192.558 26.3242 192.558 35.9733Z" fill="white" stroke="#263238" stroke-width="1.1031" stroke-miterlimit="10" stroke-linecap="round" stroke-linejoin="round"/>
<path d="M192.558 35.9733V46.4266H17.701V35.9733C17.701 26.3242 25.5882 18.4172 35.2134 18.4172H175.045C184.671 18.4172 192.558 26.3242 192.558 35.9733Z" fill="#0F65B2" stroke="#263238" stroke-width="1.1031" stroke-miterlimit="10"/>
<path d="M77.1897 58.354H34.1439V65.5909H77.1897V58.354Z" fill="#69CBF6"/>
<path d="M77.1897 123.218H34.1439V130.455H77.1897V123.218Z" fill="#69CBF6"/>
<path d="M77.1897 182.051H34.1439V189.287H77.1897V182.051Z" fill="#69CBF6"/>
<path d="M156.33 76.3121H34.1439V81.6728H156.33V76.3121Z" fill="#263238"/>
<path d="M134.272 86.4973H34.1439V91.7239H134.272V86.4973Z" fill="#263238"/>
<path d="M147.373 96.4146H34.1439V101.641H147.373V96.4146Z" fill="#263238"/>
<path d="M147.373 106.466H34.1439V111.692H147.373V106.466Z" fill="#263238"/>
<path d="M156.33 135.145H34.1439V140.506H156.33V135.145Z" fill="#263238"/>
<path d="M134.272 145.33H34.1439V150.557H134.272V145.33Z" fill="#263238"/>
<path d="M147.373 155.247H34.1439V160.474H147.373V155.247Z" fill="#263238"/>
<path d="M156.33 199.741H34.1439V205.101H156.33V199.741Z" fill="#263238"/>
<path d="M134.272 209.792H34.1439V215.018H134.272V209.792Z" fill="#263238"/>
<path d="M147.373 219.843H34.1439V225.07H147.373V219.843Z" fill="#263238"/>
</svg>
