<svg width="211" height="196" viewBox="0 0 211 196" fill="none" xmlns="http://www.w3.org/2000/svg">
<path opacity="0.7" d="M203.49 77.5287L192.309 78.235C191.025 73.5634 189.34 69.0503 187.248 64.7482L196.524 58.9191C199.055 57.3287 199.705 54.1102 197.977 51.7294L187.158 36.8242C185.426 34.4382 181.964 33.7892 179.425 35.3759L170.025 41.2505C166.456 37.8253 162.578 34.684 158.429 31.8706L163.386 22.3404C164.723 19.7706 163.553 16.6497 160.773 15.3688L143.354 7.34281C140.564 6.05692 137.211 7.10023 135.867 9.67482L130.876 19.2356C125.994 17.9056 120.942 16.9735 115.773 16.4355L114.904 5.71371C114.671 2.83536 111.965 0.640787 108.858 0.812395L89.3884 1.88754C86.2685 2.05992 83.9275 4.5401 84.1613 7.42684L85.0327 18.1805C79.9627 19.3027 75.0641 20.8063 70.3913 22.6901L63.8248 13.7251C62.0542 11.3073 58.511 10.6433 55.91 12.2426L39.6151 22.2631C37.0044 23.8684 36.3292 27.1341 38.1086 29.5554L44.6974 38.5223C40.9551 41.8332 37.5368 45.445 34.4727 49.3101L23.9305 44.5413C21.076 43.2502 17.6443 44.3185 16.2665 46.9286L7.64103 63.2702C6.25983 65.8861 7.46174 69.0508 10.324 70.3371L20.7891 75.0404C19.361 79.6331 18.3828 84.3893 17.8416 89.2556L6.25434 89.9875C3.08246 90.1879 0.700534 92.7109 0.936538 95.623L2.41226 113.833C2.64827 116.744 5.41216 118.935 8.58321 118.726L20.0758 117.969C21.3717 122.744 23.0946 127.351 25.2334 131.741L15.7788 137.649C13.1537 139.29 12.4746 142.576 14.2631 144.987L25.4337 160.051C27.2179 162.458 30.7862 163.074 33.4028 161.43L42.7834 155.535C46.4648 159.026 50.4729 162.206 54.7527 165.048L49.8498 174.439C48.4794 177.064 49.674 180.209 52.5164 181.462L70.2573 189.286C73.0892 190.535 76.4884 189.422 77.8509 186.803L82.6894 177.499C87.6953 178.797 92.8714 179.673 98.1577 180.14L98.9911 190.424C99.2251 193.311 101.942 195.465 105.057 195.234L124.497 193.798C127.599 193.569 129.923 191.05 129.69 188.171L128.859 177.918C133.973 176.702 138.903 175.101 143.59 173.113L149.796 181.559C151.541 183.935 155.027 184.537 157.581 182.906L173.525 172.727C176.069 171.102 176.724 167.863 174.987 165.492L168.763 156.995C172.449 153.628 175.813 149.971 178.809 146.061L188.757 150.533C191.526 151.777 194.847 150.69 196.176 148.106L204.479 131.967C205.805 129.389 204.643 126.288 201.882 125.039L191.914 120.53C193.271 115.978 194.196 111.273 194.685 106.459L205.774 105.728C208.826 105.527 211.111 103.05 210.88 100.196L209.433 82.3475C209.202 79.4934 206.541 77.336 203.49 77.5287ZM102.707 45.4568C134.041 43.5932 161.207 65.5615 163.553 94.5144C165.899 123.467 142.559 148.696 111.25 150.877C79.7516 153.071 52.154 131.131 49.7818 101.86C47.4098 72.5889 71.1826 47.3318 102.707 45.4568Z" fill="#D8DEE8"/>
</svg>
