<svg width="117" height="108" viewBox="0 0 117 108" fill="none" xmlns="http://www.w3.org/2000/svg">
<path opacity="0.7" d="M112.165 43.1763L106.018 43.5645C105.312 40.9961 104.385 38.515 103.236 36.1498L108.335 32.9452C109.726 32.0708 110.084 30.3015 109.134 28.9926L103.186 20.7981C102.234 19.4863 100.331 19.1294 98.935 20.0019L93.7671 23.2315C91.8046 21.3485 89.6726 19.6214 87.392 18.0748L90.1171 12.8354C90.8518 11.4226 90.2088 9.70669 88.6803 9.00255L79.1041 4.59014C77.57 3.88321 75.7268 4.45673 74.9881 5.8723L72.2439 11.1286C69.5601 10.3975 66.7828 9.88497 63.9408 9.58928L63.4632 3.69467C63.335 2.11216 61.8471 0.905774 60.1392 1.00004L49.4354 1.59112C47.7202 1.68586 46.433 3.0494 46.5617 4.63642L47.0407 10.5484C44.2533 11.1654 41.5602 11.9921 38.9914 13.0276L35.3813 8.09886C34.4079 6.76964 32.4598 6.40468 31.0299 7.28384L22.0715 12.7928C20.6362 13.6754 20.2651 15.4708 21.2432 16.8019L24.8656 21.7316C22.8082 23.5519 20.929 25.5376 19.2444 27.6624L13.4485 25.0406C11.8792 24.3308 9.99251 24.9181 9.23507 26.3531L4.49292 35.3373C3.7335 36.7755 4.39442 38.5154 5.968 39.2224L11.7213 41.8082C10.9362 44.3331 10.3983 46.9479 10.1008 49.6233L3.73048 50.0257C1.98674 50.1358 0.6772 51.5229 0.806894 53.1239L1.61825 63.1351C1.74794 64.7359 3.26747 65.9403 5.01088 65.8255L11.3291 65.409C12.0416 68.0345 12.9887 70.5672 14.1646 72.9804L8.9667 76.229C7.52348 77.131 7.15016 78.9374 8.13348 80.2631L14.2749 88.5448C15.2557 89.8677 17.2176 90.2065 18.656 89.3025L23.8133 86.0617C25.8371 87.9808 28.0408 89.7295 30.3935 91.2916L27.6981 96.4546C26.9447 97.8975 27.6014 99.6266 29.1641 100.316L38.9175 104.617C40.4744 105.304 42.3433 104.692 43.0923 103.252L45.7524 98.137C48.5045 98.8506 51.3502 99.332 54.2565 99.5887L54.7146 105.242C54.8433 106.83 56.3368 108.014 58.0493 107.887L68.737 107.098C70.4425 106.972 71.7202 105.587 71.592 104.004L71.1352 98.3673C73.9467 97.6986 76.6572 96.8188 79.2338 95.7259L82.6458 100.369C83.6051 101.675 85.5217 102.006 86.9258 101.11L95.6909 95.5135C97.0899 94.6202 97.4496 92.8398 96.4947 91.5361L93.073 86.8646C95.0994 85.0133 96.9491 83.0031 98.5963 80.8537L104.066 83.3118C105.588 83.9957 107.413 83.3983 108.144 81.9779L112.709 73.1049C113.438 71.6877 112.799 69.9826 111.281 69.296L105.801 66.8171C106.547 64.3149 107.055 61.7277 107.324 59.0816L113.421 58.6798C115.099 58.5692 116.355 57.2075 116.228 55.6385L115.433 45.8259C115.305 44.2564 113.843 43.0703 112.165 43.1763ZM56.7572 25.5441C73.984 24.5196 88.9188 36.5971 90.2088 52.5145C91.4987 68.4318 78.6666 82.302 61.4539 83.501C44.137 84.7072 28.9647 72.6449 27.6606 56.5528C26.3566 40.4605 39.4262 26.5749 56.7572 25.5441Z" fill="#D8DEE8"/>
</svg>
