<svg width="138" height="157" viewBox="0 0 138 157" fill="none" xmlns="http://www.w3.org/2000/svg">
<path d="M78.7009 152.405C51.7609 149.164 17.6038 140.648 3.88538 116.635C0.621619 110.922 -2.65291 99.8245 5.58419 95.6456C13.1136 91.8256 22.8508 95.8605 28.4473 100.831C32.5618 104.486 35.7728 112.644 40.3962 115.223C47.1629 118.999 50.8058 108.697 50.6635 104.446C50.3452 94.9399 37.8582 91.0483 29.5594 88.9844C15.7844 85.5583 -0.253897 82.6215 0.609185 68.0855C1.47227 53.5495 16.6076 44.8307 28.2512 51.1894C37.8443 56.4297 36.4938 67.6139 43.0488 74.324C48.8723 80.2853 50.8987 70.6093 50.5099 65.8655C49.6652 55.5611 39.9897 48.1082 32.8706 41.2033C24.8214 33.3965 15.9289 17.6895 24.5085 7.36696C29.4457 1.427 41.9879 0.0355159 49.4007 1.03783C85.6867 5.94379 61.6253 49.9153 68.2229 54.8212C74.8204 59.7272 81.0625 51.1392 81.046 38.0807C81.0296 25.0224 83.1641 15.3921 97.7173 19.5713C112.27 23.7504 115.041 57.8591 98.4233 70.967C81.8058 84.075 99.4663 98.3764 103.928 88.9824C107.148 82.1994 109.98 64.4362 119.288 62.4878C134.797 59.2475 134.567 88.9025 130.104 95.8044C123.847 105.48 109.698 107.581 101.797 115.929C99.5018 118.354 94.3195 124.359 96.3328 127.904C99.1403 132.847 106.974 127.559 109.851 125.268C116.321 120.117 125.277 102.612 134.391 114.237C145.646 128.592 126.823 149.871 78.7009 152.405Z" fill="#A4B8EA"/>
<g opacity="0.8">
<path d="M74.8153 150.266C75.4482 150.266 75.9672 149.589 75.9788 148.994C75.9894 148.478 76.739 96.666 52.6228 35.1647C52.4007 34.5997 51.731 34.2593 51.1285 34.4664C50.5248 34.6739 50.2152 35.2748 50.4369 35.8403C74.4045 96.962 73.6614 148.454 73.6511 148.965C73.639 149.567 74.1503 150.267 74.7929 150.267C74.8006 150.266 74.8082 150.266 74.8153 150.266Z" fill="white"/>
</g>
<path d="M57.2688 148.145C58.1719 142.842 68.9995 141.33 73.3631 140.559C75.8936 140.112 79.495 139.651 80.7951 137.202C82.1607 134.631 80.0838 132.644 77.4219 132.189C72.6562 131.374 67.5288 134.208 63.0998 135.499C58.3422 136.884 53.4062 137.536 48.6879 135.623C44.9258 134.097 41.0739 130.473 40.2551 126.658C37.9894 116.101 49.2853 116.707 56.6465 118.19C60.2185 118.91 67.2417 119.453 67.8716 114.726C68.5416 109.698 61.7083 107.162 57.4874 107.012C51.9709 106.815 46.5484 107.951 41.0761 108.323C36.1417 108.658 30.3 108.155 28.9314 102.838C27.8742 98.7302 30.3449 94.0092 33.9112 91.5724C42.1566 85.9383 53.0204 95.5457 61.8219 95.5259C64.9336 95.5189 70.0696 93.381 70.9309 90.2522C71.8044 87.0649 67.3828 84.918 64.9588 83.7556C57.7737 80.3101 24.7717 75.8983 36.5933 62.5556C39.5687 59.1974 45.3177 56.3738 49.9575 56.2549C58.7109 56.0306 68.5473 61.5941 75.2912 66.3934C85.8993 73.9426 95.1798 84.3319 101.206 95.4638C114.524 120.066 108.072 136.562 108.072 136.562C104.211 142.524 98.2362 148.725 91.6555 152.084C83.9197 156.032 71.9392 157.766 63.5255 154.697C60.8039 153.703 56.7092 151.429 57.2688 148.145Z" fill="#2A51B3"/>
</svg>
