<svg width="102" height="289" viewBox="0 0 102 289" fill="none" xmlns="http://www.w3.org/2000/svg">
<path d="M47.3388 266.311C50.6992 268.854 50.8893 270.662 50.7807 271.542C50.6055 272.962 49.4627 273.513 46.7278 276.192C43.0288 279.817 43.5946 280.302 41.7102 281.613C37.5518 284.506 31.6716 284.315 31.317 283.331C31.0681 282.64 33.7273 282.077 36.7539 278.795C39.5467 275.766 40.492 272.765 40.7448 271.884C41.2043 270.283 41.3234 268.899 41.346 267.941L47.3388 266.311Z" fill="#5D80D9"/>
<path d="M36.0827 258.562L42.7001 269.36C44.2936 270.02 45.8176 269.687 47.2308 267.762L44.6489 254.635L36.0827 258.562Z" fill="url(#paint0_linear_1602_350)"/>
<path d="M28.059 120.072C21.6121 130.263 11.1551 149.931 9.03935 176.526C6.95114 202.776 14.0225 222.781 16.9847 230.242C22.5347 244.222 32.1868 258.9 37.7937 265.897C41.5753 264.416 43.8013 262.093 47.5828 260.612C47.0148 258.686 45.2615 252.323 44.1579 248.533C43.3026 245.597 41.7259 240.164 41.4018 239.003C38.6867 229.281 40.8301 221.985 40.083 209.961C39.2114 195.938 35.7805 197.568 36.2964 189.149C37.067 176.578 44.674 173.643 53.4072 155.447C59.3849 142.992 65.6632 129.91 59.8927 122.758C52.6295 113.756 30.5262 119.416 28.059 120.072Z" fill="#5D80D9"/>
<path d="M74.7092 276.187C76.7249 277.387 77.9414 280.241 77.0231 282.037C76.1202 283.803 73.8192 283.245 68.2301 284.854C62.2434 286.577 61.0591 288.317 56.646 288.313C54.8629 288.311 51.6305 288.025 51.3605 286.901C51.1708 286.112 52.543 285.327 57.0613 282.484C63.4752 278.449 63.4087 278.336 64.8403 277.717C68.4364 276.163 72.0478 274.602 74.7092 276.187Z" fill="#5D80D9"/>
<path d="M65.1346 267.636L67.5918 278.146C67.9351 278.616 71.434 279.74 73.885 278.146L72.9816 267.636H65.1346Z" fill="url(#paint1_linear_1602_350)"/>
<path opacity="0.3" d="M59.8851 122.758C52.6221 113.756 30.5188 119.416 28.0514 120.072C25.4023 124.259 22.0793 130.071 18.9332 137.281C26.7667 135.839 30.1668 137.148 31.7512 138.888C37.9011 145.64 18.6462 160.55 22.6056 183.173C24.1541 192.022 28.1957 196.004 27.4562 206.811C26.9061 214.853 24.2382 218.924 22.3939 224.811C21.2872 228.344 20.4303 232.688 20.3896 237.937C25.9275 249.337 33.206 260.18 37.7863 265.896C41.5678 264.416 43.7939 262.093 47.5754 260.612C47.0074 258.686 45.254 252.323 44.1505 248.533C43.2952 245.597 41.7185 240.164 41.3944 239.003C38.6793 229.281 40.8227 221.985 40.0755 209.961C39.204 195.938 35.773 197.568 36.289 189.149C37.0595 176.578 44.6666 173.643 53.3998 155.447C59.3773 142.992 65.6556 129.91 59.8851 122.758Z" fill="#2A51B3"/>
<path d="M45.3172 125.596C44.6936 149.046 45.6382 176.219 49.7589 206.17C53.1135 230.553 57.9922 252.552 63.366 271.854C64.1092 272.247 66.716 273.511 70.0547 272.919C72.4188 272.5 74.0007 271.353 74.7044 270.771C74.1179 266.828 73.5235 260.862 74.0101 253.653C74.8465 241.26 77.9625 238.735 79.2999 225.911C80.4726 214.664 79.237 205.477 78.638 201.217C76.7942 188.105 74.2914 187.835 74.2416 179.982C74.165 167.89 80.0693 163.56 83.3151 152.039C85.4805 144.354 86.6285 132.88 81.1834 117.146C69.2283 119.962 57.2729 122.779 45.3172 125.596Z" fill="#5D80D9"/>
<path d="M32.5464 32.0295C28.1561 34.3382 22.0575 38.1632 16.3733 44.2586C3.26335 58.3166 -4.84421 81.4495 3.58179 89.0182C9.31439 94.1674 22.9108 92.6075 27.594 86.4966C31.0386 82.0019 28.5591 76.4812 27.3695 68.6348C26.0896 60.1917 26.1357 47.9473 32.5464 32.0295Z" fill="#2A51B3"/>
<path d="M83.4518 122.802C78.5977 62.8853 63.1205 38.3578 64.4733 31.077C62.5256 29.7657 54.8296 27.6812 37.395 29.8301C35.9052 30.3426 31.9281 31.8455 27.9865 35.2195C27.9865 35.2195 27.0703 36.0019 25.817 37.3763C38.065 39.5422 50.5413 46.0727 55.0325 55.3248C62.8122 73.0167 48.3641 92.7901 55.0325 108.401C58.5369 116.604 64.143 123.876 70.8357 130.674C78.4875 128.886 83.7316 126.255 83.4518 122.802Z" fill="#5D80D9"/>
<path opacity="0.3" d="M81.195 117.146C77.6952 117.97 74.1955 118.795 70.6957 119.619C72.5259 125.524 74.2841 134.386 72.1707 144.447C69.2524 158.34 61.71 161.388 60.6008 173.915C59.6028 185.186 65.2851 187.484 68.0055 202.517C70.7933 217.922 66.5739 225.167 65.6914 238.052C65.0875 246.87 66.0677 258.406 71.7973 272.446C73.2126 271.922 74.2013 271.197 74.7158 270.771C74.1293 266.828 73.5349 260.862 74.0215 253.653C74.8579 241.26 77.9739 238.735 79.3113 225.911C80.484 214.664 79.2485 205.477 78.6494 201.217C76.8057 188.105 74.3028 187.835 74.253 179.982C74.1764 167.89 80.0807 163.56 83.3265 152.039C85.492 144.354 86.6402 132.88 81.195 117.146Z" fill="#5D80D9"/>
<path d="M27.9932 35.2197C27.9932 35.2197 23.3544 39.1724 20.6495 44.9794C16.5746 53.728 20.9632 61.2384 22.2795 75.5251C23.7234 91.1973 21.6807 117.305 16.9721 126.658C16.8902 126.821 16.686 127.286 16.7693 127.876C18.0422 136.916 84.4364 134.867 83.4587 122.802C78.6046 62.8853 63.1273 38.3579 64.4802 31.0772C62.5324 29.7657 54.8365 27.6812 37.4018 29.8301C35.9118 30.3426 31.9348 31.8456 27.9932 35.2197Z" fill="#5D80D9"/>
<path d="M47.7012 14.7832C47.7012 14.7832 51.9889 27.3853 53.3773 28.9016C54.7658 30.4181 47.804 34.3819 42.4675 32.5947C37.5668 30.9536 42.4715 23.9593 42.4715 23.9593L47.7012 14.7832Z" fill="#A4B8EA"/>
<path d="M34.3876 11.8408C32.707 9.35802 32.9427 5.26226 35.3336 2.84252C37.391 0.760549 40.3549 0.665211 42.1293 0.607749C47.2713 0.441111 53.5282 2.91801 55.386 7.47749C56.4866 10.1794 53.1555 15.3696 52.623 16.3073C52.0203 17.3681 51.0665 17.6755 50.1427 18.4422C48.862 19.5054 46.8549 21.1982 43.5729 24.0349C43.4158 23.1129 43.1558 21.9668 42.6935 20.7104C42.5157 20.2271 41.7968 18.3366 40.602 16.724C38.2078 13.4918 35.9804 14.1944 34.3876 11.8408Z" fill="#5D80D9"/>
<path d="M48.1039 21.7828C48.1039 21.7828 44.3118 26.675 37.6786 25.7652C31.7397 24.9507 31.9445 12.3477 35.9869 9.97498C37.3356 9.18356 39.9151 9.00745 41.9403 9.70739C43.1364 10.1206 43.5097 10.6282 45.4779 11.2683C47.2934 11.8586 47.8337 11.7058 48.3553 12.1889C49.0081 12.7938 49.4043 14.185 47.9198 17.7619C49.1518 16.768 50.5547 16.4565 51.4866 16.9579C51.6352 17.0381 52.0228 17.3303 52.2193 17.7433C52.9305 19.2384 51.3766 20.9618 48.1039 21.7828Z" fill="#C8D4F2"/>
<path d="M35.1942 19.7071C35.1942 19.7071 36.4295 20.435 38.6678 20.4861C38.7768 20.4886 38.8935 20.5274 38.9028 20.5808C38.9373 20.7824 37.4312 21.562 36.1441 21.116C35.2301 20.7992 34.5736 19.9152 34.7176 19.7139C34.7784 19.629 34.9892 19.6566 35.1942 19.7071Z" fill="#5D80D9"/>
<path opacity="0.3" d="M64.7316 69.8956C57.4863 72.2776 47.8721 78.9707 47.2275 87.5473C46.237 100.72 67.186 107.947 64.3949 117.177C63.6338 119.693 61.2277 121.963 45.5443 127.263C39.1982 129.408 33.3025 131.157 27.9501 132.604C47.1409 135.253 84.1846 131.836 83.4525 122.8C81.5944 99.8637 78.1793 82.1285 74.7476 68.5462C71.2707 68.4182 67.8905 68.8569 64.7316 69.8956Z" fill="#2A51B3"/>
<path d="M41.9233 96.8479C53.7088 108.052 70.5341 111.581 83.4699 105.976C101.434 98.1921 104.212 76.1222 100.024 62.3099C93.0308 39.2506 62.5551 25.8034 52.9542 31.9463C46.0109 36.3886 46.077 53.5764 54.3518 62.1798C61.7897 69.913 73.2141 67.9594 76.3211 75.8377C78.6485 81.7387 74.1514 87.6845 73.7652 88.1796C68.7631 94.5917 57.862 96.7673 47.5524 92.3641C45.6758 93.8585 43.7996 95.3532 41.9233 96.8479Z" fill="#2A51B3"/>
<path d="M18.5901 77.5385C19.5497 74.6518 22.6675 73.1727 25.1204 72.8528C27.5214 72.5395 31.4778 73.0504 33.053 75.9897C34.5263 78.7384 33.3678 82.5844 29.981 84.6696C29.5043 83.5622 28.6502 82.1053 27.1461 81.6635C24.3794 80.8508 21.9815 84.2266 19.9373 83.3448C18.308 82.6416 17.8857 79.6571 18.5901 77.5385Z" fill="#C8D4F2"/>
<path d="M29.9094 95.0373L38.9789 96.5138C40.7359 96.7998 42.2441 95.3302 41.8691 93.6977L38.5697 79.3311C38.3309 78.2917 37.3782 77.5308 36.2448 77.4742L25.3863 76.9301C23.5943 76.8404 22.2811 78.4861 22.881 80.0697L27.9696 93.504C28.2729 94.3057 29.0146 94.8918 29.9094 95.0373Z" fill="white"/>
<path d="M45.7308 93.8117C44.9865 88.8093 42.7346 87.5 41.9194 87.128C40.5528 86.5044 39.8791 86.9887 35.1081 86.9179C30.8459 86.8546 29.8359 86.4452 29.2967 87.128C28.2759 88.4212 30.3741 91.8195 32.7517 93.8117C36.085 96.6048 40.2183 96.8443 41.9194 96.848L45.7308 93.8117Z" fill="#C8D4F2"/>
<defs>
<linearGradient id="paint0_linear_1602_350" x1="47.4315" y1="254.276" x2="38.1051" y2="270.642" gradientUnits="userSpaceOnUse">
<stop stop-color="#FFC444"/>
<stop offset="0.9964" stop-color="#F36F56"/>
</linearGradient>
<linearGradient id="paint1_linear_1602_350" x1="65.489" y1="280.684" x2="74.4812" y2="260.808" gradientUnits="userSpaceOnUse">
<stop stop-color="#FFC444"/>
<stop offset="0.9964" stop-color="#F36F56"/>
</linearGradient>
</defs>
</svg>
