<svg width="310" height="415" viewBox="0 0 310 415" fill="none" xmlns="http://www.w3.org/2000/svg">
<path d="M222.526 18.8467L261.771 388.447C262.355 393.951 258.308 398.763 252.763 399.142L61.5451 414.139C49.8885 414.522 43.5983 408.642 42.9653 402.818L0.443707 11.5949C-0.194981 5.71802 5.6285 0.516518 17.4038 0.741083L211.227 8.39292C216.858 8.59171 221.936 13.2961 222.526 18.8467Z" fill="#2A51B3"/>
<path d="M231.23 18.3759L270.64 389.881C271.227 395.413 267.164 400.25 261.596 400.632L63.3517 414.24C57.1624 414.665 51.564 410.224 50.9281 404.369L8.21595 11.0719C7.57461 5.16366 12.2095 0.511924 18.4983 0.734471L219.884 7.86699C225.539 8.06748 230.638 12.7964 231.23 18.3759Z" fill="#1D191F"/>
<path d="M227.052 38.8748L263.605 383.205C264.153 388.373 260.35 392.885 255.139 393.232L68.6773 405.643C62.9216 406.026 57.7161 401.88 57.1242 396.428L17.702 33.1568C17.1052 27.6589 21.4092 23.3028 27.2504 23.4768L216.446 29.1152C221.732 29.2728 226.499 33.6646 227.052 38.8748Z" fill="#D8DEE8"/>
<path d="M126.755 16.1016C126.968 18.089 125.47 19.6473 123.406 19.5822C121.341 19.517 119.492 17.85 119.278 15.859C119.064 13.8678 120.567 12.3093 122.633 12.3784C124.698 12.4474 126.542 14.1142 126.755 16.1016Z" fill="white"/>
<g opacity="0.3">
<path d="M108.414 197.442C88.7118 142.929 123.005 115.467 103.584 64.9765C93.0183 37.5051 71.8666 17.0406 48.5977 1.80029L18.4993 0.734298C12.2103 0.511596 7.57559 5.16333 8.2166 11.0716L50.9289 404.368C51.5643 410.223 57.1632 414.664 63.3521 414.24L234.508 402.491C233.97 361.426 222.829 332.199 210.438 311.422C176.388 254.33 128.816 253.888 108.414 197.442Z" fill="#F4F7FA"/>
</g>
<path d="M221.177 66.7102C250.694 89.6069 280.211 112.504 309.729 135.4C233.58 167.465 242.442 265.471 166.294 297.536C136.776 274.639 107.259 251.742 77.742 228.846C153.89 196.781 145.029 98.7746 221.177 66.7102Z" fill="#2A51B3"/>
<path d="M294.795 134.228C230.197 168.313 232.631 254.396 168.033 288.48C142.911 268.993 117.788 249.505 92.6655 230.017C157.263 195.932 154.829 109.85 219.427 75.7651C244.549 95.2529 269.672 114.741 294.795 134.228Z" fill="white"/>
<path d="M106.048 219.965C106.38 220.222 106.671 220.466 106.972 220.737C106.998 220.761 107.023 220.783 107.049 220.807C110.485 223.903 112.097 227.817 111.7 231.562C111.357 234.835 109.463 237.964 105.872 240.271C105.349 240.607 104.783 240.922 104.19 241.221C101.944 242.353 99.3679 243.105 96.6369 243.516C90.3328 238.625 84.0286 233.735 77.7245 228.845C85.8187 225.437 92.9524 221.284 99.3296 216.544C101.626 217.173 104.059 218.422 106.048 219.965Z" fill="#5D80D9"/>
<path d="M183.165 279.791C185.237 281.398 186.617 283.163 187.772 285.308C181.421 290.017 174.319 294.145 166.268 297.535C159.817 292.531 153.367 287.527 146.916 282.524C148.412 281.155 150.306 279.872 152.551 278.741C153.144 278.442 153.752 278.16 154.367 277.895C163.559 273.947 174.828 273.949 182.345 279.19C182.374 279.208 182.403 279.23 182.433 279.251C182.68 279.422 182.935 279.612 183.165 279.791Z" fill="#2A51B3"/>
<path d="M221.16 66.7104C227.464 71.6005 233.768 76.4906 240.072 81.3808C238.576 82.7491 236.682 84.032 234.437 85.1633C233.843 85.4625 233.236 85.7447 232.62 86.0093C223.523 89.9158 212.419 89.9771 204.903 84.8954C204.551 84.6602 204.264 84.456 203.933 84.1984C201.944 82.6564 200.335 80.7692 199.554 79.0119C205.932 74.272 213.065 70.1186 221.16 66.7104Z" fill="#5D80D9"/>
<path d="M290.356 120.389C296.806 125.393 303.257 130.397 309.708 135.4C301.656 138.791 294.555 142.918 288.203 147.627C285.403 146.704 283.127 145.633 281.055 144.025C280.824 143.846 280.578 143.648 280.358 143.457C280.332 143.434 280.303 143.412 280.279 143.389C276.931 140.496 275.21 136.841 275.275 133.262C275.342 129.668 277.232 126.169 281.147 123.654C281.67 123.318 282.222 122.993 282.816 122.694C285.061 121.563 287.625 120.8 290.356 120.389Z" fill="#5D80D9"/>
<path d="M209.16 153.501C223.295 164.465 227.471 185.879 219.326 201.98C211.181 218.081 192.337 221.638 178.075 210.575C163.94 199.61 159.763 178.196 167.909 162.096C176.054 145.995 194.898 142.438 209.16 153.501Z" fill="#2A51B3"/>
<path d="M198.789 172.718C196.301 173.265 193.727 174.847 190.753 178.092C188.658 176.466 186.562 174.841 184.467 173.215C184.549 173.081 184.631 172.946 184.713 172.811C185.535 171.496 186.457 170.311 187.448 169.32C188.016 168.751 188.622 168.216 189.25 167.742C189.954 167.212 189.954 166.064 189.267 165.417C188.403 164.602 187.539 163.788 186.675 162.974C186.132 162.466 185.351 162.451 184.845 162.932C183.994 163.733 183.158 164.633 182.39 165.515C181.348 166.712 180.389 167.97 179.479 169.346C178.747 168.778 178.014 168.21 177.282 167.642C176.64 167.144 175.799 167.222 175.371 167.889C174.939 168.557 175.141 169.451 175.788 169.952C176.535 170.532 177.283 171.112 178.031 171.693C176.238 175.159 175.487 178.403 175.83 181.337C176.178 184.293 177.592 186.735 180.083 188.666C182.49 190.534 184.937 191.189 187.409 190.633C189.87 190.079 192.426 188.31 195.059 185.346C197.386 187.161 199.714 188.977 202.041 190.793C201.129 192.281 200.097 193.649 198.948 194.895C198.211 195.694 197.423 196.439 196.589 197.132C195.875 197.726 195.864 198.931 196.588 199.601C197.705 200.634 198.823 201.668 199.94 202.701C200.498 203.217 201.282 203.2 201.789 202.685C202.626 201.832 203.425 200.908 204.186 199.919C205.212 198.585 206.205 197.075 207.133 195.468C207.245 195.27 207.358 195.073 207.47 194.876C208.267 195.494 209.064 196.112 209.861 196.73C210.507 197.231 211.339 197.159 211.709 196.443C211.713 196.435 211.717 196.428 211.721 196.421C212.091 195.705 211.882 194.828 211.239 194.329C210.431 193.702 209.623 193.076 208.815 192.449C209.966 189.873 210.604 187.409 210.701 185.108C210.749 184.111 210.702 183.121 210.548 182.173C210.046 179.057 208.53 176.554 206.012 174.6C203.683 172.793 201.268 172.177 198.789 172.718ZM196.936 183.235C197.937 182.276 198.932 181.603 199.802 181.442C200.669 181.279 201.538 181.513 202.384 182.169C203.316 182.891 203.855 183.792 204.032 184.829C204.209 185.867 203.993 186.974 203.35 188.21C201.212 186.551 199.074 184.893 196.936 183.235ZM186.319 181.834C185.522 182.014 184.748 181.814 184.001 181.234C183.21 180.621 182.741 179.826 182.593 178.847C182.444 177.868 182.68 176.687 183.12 175.64C185.044 177.133 186.968 178.625 188.892 180.118C187.951 181.122 187.116 181.651 186.319 181.834Z" fill="white"/>
<path opacity="0.2" d="M309.422 135.177C309.518 135.252 309.614 135.326 309.71 135.401C233.562 167.465 242.424 265.472 166.275 297.536C137.382 275.124 108.489 252.711 79.5958 230.298C83.7991 229.881 88.3367 229.633 93.231 229.71C98.8823 229.802 105.008 230.324 111.699 231.563C119.13 232.939 127.26 235.195 136.267 238.762C180.77 256.445 193.559 241.556 201.272 216.41C203.391 209.743 205.22 202.405 207.437 194.945C208.414 191.664 209.505 188.358 210.72 185.075C213.106 178.647 215.976 172.307 219.441 166.418C230.775 146.281 250.67 132.653 275.278 133.262C279.786 133.321 284.384 133.818 288.991 134.755C290.192 134.998 291.453 135.183 292.778 135.315C297.568 135.8 303.136 135.61 309.422 135.177Z" fill="#5D80D9"/>
<path d="M235.2 149.832C237.842 150.813 239.211 153.433 238.241 155.656L177.066 296.512C176.02 298.908 172.353 300.631 169.627 299.569L69.9695 260.767C67.3011 259.728 66.1953 256.107 67.2935 253.764L128.981 115.123C129.996 112.945 132.941 111.951 135.527 112.911L235.2 149.832Z" fill="#5D80D9"/>
<path d="M236.834 147.043C239.494 148.029 240.871 150.67 239.892 152.913L177.584 295.565C176.531 297.975 173.423 299.075 170.679 298.008L70.3987 258.983C67.7137 257.939 66.4231 255.153 67.5278 252.795L129.879 112.138C130.903 109.941 133.869 108.936 136.473 109.901L236.834 147.043Z" fill="#5D80D9"/>
<g opacity="0.7">
<path d="M161.569 244.643L151.013 267.793C150.542 268.826 149.227 269.38 148.092 269.024L141.867 267.067C140.731 266.71 140.189 265.572 140.664 264.54L151.296 241.401C151.764 240.383 153.068 239.842 154.194 240.198L160.366 242.146C161.492 242.501 162.033 243.624 161.569 244.643Z" fill="#F4F7FA"/>
<path d="M175.452 214.179L165.089 236.906C164.627 237.921 163.329 238.461 162.204 238.106L156.041 236.159C154.916 235.804 154.376 234.683 154.842 233.669L165.28 210.954C165.739 209.955 167.027 209.427 168.143 209.781L174.254 211.719C175.369 212.073 175.908 213.18 175.452 214.179Z" fill="#F4F7FA"/>
<path d="M189.106 184.267L178.931 206.582C178.477 207.578 177.195 208.104 176.081 207.751L169.978 205.814C168.864 205.461 168.327 204.357 168.784 203.361L179.032 181.058C179.483 180.077 180.756 179.563 181.86 179.915L187.913 181.843C189.017 182.195 189.554 183.286 189.106 184.267Z" fill="#F4F7FA"/>
<path d="M202.484 154.894L192.492 176.809C192.046 177.786 190.779 178.299 189.677 177.948L183.632 176.021C182.529 175.669 181.994 174.581 182.443 173.604L192.507 151.701C192.95 150.738 194.207 150.236 195.301 150.586L201.296 152.505C202.389 152.855 202.924 153.93 202.484 154.894Z" fill="#F4F7FA"/>
</g>
<path d="M131.745 246.22L126.766 257.199C125.86 259.197 123.25 260.109 120.966 259.225L108.531 254.412C106.255 253.53 105.142 251.181 106.056 249.191L111.08 238.257C111.988 236.28 114.585 235.378 116.853 236.251L129.243 241.019C131.518 241.895 132.645 244.234 131.745 246.22Z" fill="#54C390"/>
<path d="M130.199 246.531L125.92 255.96C125.082 257.807 122.68 258.646 120.569 257.829L109.889 253.696C107.783 252.881 106.758 250.72 107.603 248.879L111.916 239.484C112.756 237.654 115.147 236.823 117.247 237.631L127.891 241.73C129.997 242.541 131.033 244.694 130.199 246.531ZM108.133 249.084C107.406 250.669 108.288 252.53 110.102 253.232L120.78 257.364C122.599 258.067 124.667 257.345 125.388 255.754L129.668 246.326C130.386 244.744 129.494 242.89 127.682 242.192L117.035 238.092C115.227 237.396 113.168 238.111 112.445 239.688L108.133 249.084Z" fill="url(#paint0_linear_1602_373)"/>
<path d="M111.314 253.976L118.456 238.37L111.314 253.976Z" fill="#F4F7FA"/>
<path d="M118.718 238.472L111.577 254.079L111.047 253.874L118.189 238.268L118.718 238.472Z" fill="url(#paint1_linear_1602_373)"/>
<path d="M115.353 255.529L122.482 239.91L115.353 255.529Z" fill="#F4F7FA"/>
<path d="M122.745 240.012L115.617 255.632L115.086 255.426L122.216 239.808L122.745 240.012Z" fill="url(#paint2_linear_1602_373)"/>
<path d="M119.347 257.084L126.463 241.452L119.347 257.084Z" fill="#F4F7FA"/>
<path d="M126.726 241.555L119.611 257.187L119.079 256.982L126.196 241.351L126.726 241.555Z" fill="url(#paint3_linear_1602_373)"/>
<path d="M126.861 248.21L124.875 252.581C124.371 253.691 122.917 254.199 121.647 253.707L112.326 250.105C111.058 249.615 110.436 248.307 110.944 247.199L112.942 242.841C113.449 241.737 114.898 241.232 116.164 241.72L125.469 245.307C126.738 245.796 127.365 247.102 126.861 248.21Z" fill="#FEC045"/>
<path d="M127.122 248.313L125.136 252.684C124.572 253.925 122.957 254.489 121.536 253.94L112.215 250.337C110.798 249.789 110.107 248.336 110.675 247.098L112.673 242.739C113.239 241.505 114.85 240.944 116.266 241.49L125.57 245.076C126.988 245.623 127.685 247.075 127.122 248.313ZM111.205 247.302C110.754 248.285 111.303 249.439 112.428 249.874L121.748 253.476C122.875 253.911 124.157 253.464 124.605 252.478L126.591 248.108C127.038 247.125 126.485 245.973 125.359 245.539L116.054 241.952C114.931 241.518 113.652 241.963 113.202 242.944L111.205 247.302Z" fill="url(#paint4_linear_1602_373)"/>
<path opacity="0.15" d="M172.638 238.541C169.005 250.92 165.787 258.458 158.891 265.687C149.423 275.614 137.625 280.14 130.251 282.274L170.681 298.007C173.424 299.075 176.532 297.975 177.585 295.564L239.894 152.913C240.873 150.67 239.496 148.029 236.836 147.042L220.768 141.083C196.266 156.72 187.019 172.67 183.167 184.628C178.513 199.075 181.268 209.137 172.638 238.541Z" fill="url(#paint5_linear_1602_373)"/>
<g opacity="0.42">
<path d="M183.964 245.032L169.893 276.964C169.625 277.572 168.838 277.849 168.143 277.58L162.422 275.366C161.728 275.097 161.381 274.381 161.65 273.774L175.773 241.894C176.038 241.297 176.818 241.024 177.507 241.288L183.189 243.464C183.879 243.728 184.228 244.434 183.964 245.032Z" fill="url(#paint6_linear_1602_373)"/>
<path d="M211.165 183.783L192.441 226.26C192.175 226.865 191.388 227.144 190.693 226.879L184.972 224.699C184.278 224.435 183.929 223.724 184.197 223.12L202.988 180.711C203.251 180.119 204.028 179.846 204.716 180.105L210.388 182.235C211.077 182.494 211.427 183.19 211.165 183.783Z" fill="url(#paint7_linear_1602_373)"/>
</g>
<path opacity="0.26" d="M153.032 132.562C159.93 135.132 163.107 142.604 160.144 149.189C157.209 155.711 149.353 158.889 142.58 156.345C135.817 153.806 132.599 146.486 135.409 139.936C138.246 133.323 146.143 129.995 153.032 132.562Z" fill="url(#paint8_linear_1602_373)"/>
<g opacity="0.53">
<path d="M127.279 232.062C127.73 233.089 127.202 234.28 126.094 234.72C124.98 235.162 123.711 234.675 123.265 233.636C122.822 232.602 123.366 231.417 124.473 230.987C125.577 230.56 126.83 231.04 127.279 232.062Z" fill="#F4F7FA"/>
<path d="M137.739 229.194C137.664 229.372 137.516 229.523 137.313 229.603C136.905 229.764 136.429 229.582 136.25 229.197C133.614 223.504 126.564 220.811 120.335 223.111C119.914 223.267 119.439 223.085 119.276 222.706C119.113 222.328 119.323 221.896 119.744 221.743C126.777 219.168 134.73 222.203 137.725 228.617C137.815 228.808 137.814 229.015 137.739 229.194Z" fill="#F4F7FA"/>
<path d="M134.779 230.363C134.703 230.543 134.552 230.695 134.346 230.777C133.933 230.94 133.454 230.756 133.277 230.368C131.355 226.141 126.136 224.146 121.534 225.874C121.111 226.033 120.633 225.85 120.468 225.466C120.303 225.083 120.513 224.645 120.935 224.488C126.353 222.47 132.491 224.816 134.77 229.78C134.859 229.974 134.856 230.182 134.779 230.363Z" fill="#F4F7FA"/>
<path d="M131.78 231.548C131.701 231.73 131.547 231.883 131.339 231.966C130.921 232.131 130.439 231.947 130.264 231.554C129.048 228.831 125.695 227.548 122.745 228.675C122.32 228.837 121.839 228.653 121.672 228.264C121.504 227.876 121.714 227.431 122.138 227.271C123.975 226.575 125.978 226.575 127.787 227.267C129.597 227.959 131.012 229.267 131.775 230.959C131.863 231.155 131.858 231.365 131.78 231.548Z" fill="#F4F7FA"/>
</g>
<path d="M157.875 218.451C157.875 243.934 136.596 263.98 109.398 263.198C81.0935 262.384 57.2884 239.493 57.2884 212.101C57.2884 184.708 81.0935 164.824 109.398 167.583C136.596 170.235 157.875 192.968 157.875 218.451Z" fill="url(#paint9_linear_1602_373)"/>
<path d="M165.228 216.253C165.228 241.736 143.949 261.782 116.751 261C88.4468 260.186 64.6415 237.296 64.6415 209.903C64.6415 182.511 88.4466 162.626 116.751 165.386C143.949 168.038 165.228 190.771 165.228 216.253Z" fill="url(#paint10_linear_1602_373)"/>
<path d="M163.094 216.118C163.094 240.478 142.734 259.609 116.752 258.821C89.7614 258.003 67.1003 236.158 67.1003 210.058C67.1003 183.958 89.7614 164.973 116.752 167.563C142.734 170.055 163.094 191.757 163.094 216.118Z" fill="url(#paint11_linear_1602_373)"/>
<path d="M161.555 216.021C161.555 239.578 141.854 258.055 116.742 257.266C90.6891 256.447 68.8416 235.347 68.8416 210.168C68.8416 184.988 90.6891 166.648 116.742 169.118C141.854 171.499 161.555 192.464 161.555 216.021Z" fill="#A19B01"/>
<path d="M116.501 177.133C117.837 177.252 118.918 178.379 118.918 179.65V183.987C121.59 184.266 124.266 184.701 126.946 185.291C128.922 185.726 130.884 186.243 132.834 186.843C134.002 187.203 134.798 188.307 134.678 189.446L134.11 194.885C133.959 196.328 132.435 197.175 131.001 196.576C129.717 196.04 128.401 195.581 127.052 195.199C124.697 194.532 122.215 194.097 119.602 193.895L118.919 193.842V206.264C125.89 208.09 131.009 210.547 134.318 213.637C137.61 216.712 139.251 220.545 139.251 225.147C139.251 230.123 137.437 234.107 133.795 237.112C130.134 240.134 125.001 241.833 118.363 242.201V246.988C118.363 248.259 117.281 249.249 115.943 249.2L115.9 249.198C114.56 249.148 113.472 248.073 113.472 246.798V242.075L112.395 242.03C109.283 241.899 106.302 241.601 103.454 241.137C101.345 240.794 99.2858 240.35 97.2762 239.807C96.0608 239.478 95.2264 238.394 95.3381 237.229L96.0074 230.238C96.1521 228.727 97.7734 227.847 99.3082 228.414C101.097 229.075 102.908 229.631 104.742 230.084C107.599 230.79 110.495 231.242 113.429 231.443L113.472 217.626C106.781 216.076 101.771 213.779 98.4794 210.738C95.1725 207.681 93.5134 203.77 93.5134 199.015C93.5134 194.094 95.3125 190.295 98.8972 187.629C102.464 184.977 107.534 183.657 114.075 183.661V179.226C114.074 177.951 115.161 177.014 116.501 177.133ZM114.074 193.714C112.006 193.854 110.393 194.386 109.239 195.31C108.083 196.235 107.504 197.478 107.504 199.038C107.504 200.517 108.04 201.752 109.109 202.744C110.177 203.734 111.834 204.525 114.074 205.116V193.714H114.074ZM118.363 218.733V231.404C120.611 231.408 122.335 230.905 123.538 229.897C124.74 228.891 125.339 227.47 125.339 225.632C125.339 223.957 124.782 222.567 123.666 221.462C122.547 220.355 120.781 219.446 118.363 218.733Z" fill="url(#paint12_linear_1602_373)"/>
<path opacity="0.3" d="M108.632 221.791C110.147 207.788 123.89 201.86 122.097 188.979C120.991 181.041 114.565 174.35 107.397 169.126C85.6545 171.262 68.8416 188.12 68.8416 210.169C68.8416 235.349 90.6891 256.448 116.742 257.267C119.271 257.346 121.742 257.223 124.144 256.928C113.798 247.287 107.332 233.821 108.632 221.791Z" fill="url(#paint13_linear_1602_373)"/>
<path d="M131.947 116.871C131.947 134.034 117.615 147.536 99.2969 147.009C80.2333 146.461 64.2003 131.044 64.2003 112.594C64.2003 94.1452 80.2333 80.7525 99.2969 82.6113C117.615 84.3974 131.947 99.7083 131.947 116.871Z" fill="url(#paint14_linear_1602_373)"/>
<path d="M136.899 115.392C136.899 132.555 122.567 146.056 104.249 145.529C85.1858 144.981 69.1528 129.564 69.1528 111.115C69.1528 92.6658 85.1858 79.2731 104.249 81.1319C122.567 82.918 136.899 98.2288 136.899 115.392Z" fill="url(#paint15_linear_1602_373)"/>
<path d="M135.458 115.301C135.458 131.708 121.745 144.593 104.246 144.063C86.0674 143.511 70.8049 128.798 70.8049 111.219C70.8049 93.6406 86.0674 80.8547 104.246 82.5985C121.745 84.2773 135.458 98.8937 135.458 115.301Z" fill="#93D9B9"/>
<path d="M134.424 115.236C134.424 131.102 121.155 143.546 104.242 143.014C86.6945 142.463 71.98 128.252 71.98 111.293C71.98 94.3345 86.6945 81.982 104.242 83.6457C121.155 85.2495 134.424 99.3697 134.424 115.236Z" fill="#D7CE01"/>
<path d="M104.057 89.043C104.957 89.1232 105.685 89.8818 105.685 90.7377V93.6589C107.485 93.8471 109.287 94.14 111.092 94.5371C112.423 94.83 113.744 95.1785 115.057 95.5828C115.844 95.825 116.38 96.5686 116.3 97.3358L115.916 100.999C115.815 101.971 114.789 102.541 113.823 102.138C112.958 101.777 112.072 101.468 111.163 101.21C109.577 100.761 107.905 100.468 106.145 100.332L105.685 100.297V108.663C110.38 109.893 113.828 111.547 116.056 113.629C118.274 115.7 119.379 118.282 119.379 121.381C119.379 124.732 118.157 127.416 115.704 129.44C113.239 131.475 109.781 132.619 105.311 132.867V136.091C105.311 136.947 104.582 137.614 103.681 137.581L103.652 137.58C102.749 137.546 102.016 136.822 102.016 135.963V132.782L101.291 132.752C99.1949 132.663 97.1873 132.463 95.2693 132.151C93.8488 131.919 92.4616 131.621 91.1081 131.254C90.2895 131.033 89.7276 130.303 89.8027 129.518L90.2535 124.81C90.3508 123.792 91.4428 123.199 92.4765 123.581C93.6814 124.026 94.9013 124.401 96.1362 124.706C98.0604 125.181 100.011 125.486 101.987 125.621L102.016 116.315C97.5094 115.271 94.1354 113.725 91.9185 111.676C89.6913 109.617 88.5738 106.983 88.5738 103.78C88.5738 100.466 89.7855 97.9076 92.1999 96.112C94.6019 94.3254 98.0168 93.4368 102.422 93.439V90.4525C102.423 89.5937 103.155 88.9626 104.057 89.043ZM102.423 100.21C101.03 100.305 99.9436 100.663 99.1661 101.285C98.3874 101.908 97.9977 102.745 97.9977 103.796C97.9977 104.792 98.3582 105.624 99.0787 106.292C99.798 106.959 100.913 107.492 102.423 107.889V100.21ZM105.311 117.061V125.595C106.825 125.598 107.986 125.259 108.797 124.58C109.606 123.903 110.01 122.945 110.01 121.708C110.01 120.579 109.634 119.643 108.882 118.899C108.129 118.154 106.94 117.541 105.311 117.061Z" fill="url(#paint16_linear_1602_373)"/>
<path opacity="0.3" d="M98.7797 119.121C99.7995 109.689 109.056 105.697 107.848 97.0217C107.103 91.6748 102.776 87.1687 97.9475 83.6504C83.3036 85.0885 71.98 96.4427 71.98 111.293C71.98 128.252 86.6945 142.463 104.241 143.014C105.945 143.068 107.609 142.985 109.227 142.786C102.258 136.293 97.9035 127.223 98.7797 119.121Z" fill="url(#paint17_linear_1602_373)"/>
<path d="M237.591 245.391L248.516 364.831C248.798 367.912 247.799 370.806 245.702 372.878C243.908 374.66 241.499 375.868 238.685 376.09L77.759 388.781C70.9411 389.319 65.1004 384.778 64.6161 378.693L54.5046 251.622C54.0286 245.641 59.0948 240.435 65.8739 240.229L225.801 235.358C231.869 235.173 237.077 239.767 237.591 245.391Z" fill="#1D191F"/>
<path opacity="0.2" d="M245.879 372.879C244.084 374.661 241.61 375.868 238.796 376.089L77.8129 388.781C70.9948 389.318 65.1004 384.779 64.6161 378.694L54.5046 251.622C54.0286 245.641 59.0948 240.436 65.8739 240.229L67.7361 240.173C68.4111 243.453 69.3168 247.135 70.182 250.669C70.3023 251.16 70.4253 251.69 70.5434 252.161C71.5471 256.24 72.4077 259.594 72.5606 260.026C77.5791 274.097 84.6735 290.264 99.662 298.131C122.565 310.159 151.564 307.999 175.65 314.585C191.511 318.923 207.795 324.785 220.415 334.597C229.635 341.767 237.416 350.607 241.968 360.951C243.616 364.695 244.907 368.735 245.879 372.879Z" fill="#1D191F"/>
<g opacity="0.7">
<path d="M225.81 370.892C225.808 370.892 225.805 370.892 225.802 370.892L220.259 371.213C219.628 371.261 219.071 370.771 219.018 370.183C218.966 369.594 219.43 369.155 220.06 369.108L225.593 368.765C225.595 368.765 225.597 368.765 225.599 368.765C226.547 368.765 227.47 368.415 228.356 368.14C228.95 367.953 229.598 368.207 229.796 368.766C229.996 369.325 229.682 370.005 229.086 370.19C228.029 370.518 226.939 370.892 225.81 370.892ZM211.578 371.774L202.852 372.443C202.214 372.492 201.655 372.051 201.602 371.459C201.55 370.867 202.025 370.348 202.662 370.299L211.387 369.637C212.021 369.589 212.577 370.028 212.63 370.618C212.682 371.208 212.211 371.726 211.578 371.774ZM194.075 373.116L185.245 373.792C184.6 373.842 184.034 373.399 183.982 372.803C183.93 372.207 184.411 371.685 185.057 371.636L193.886 370.965C194.527 370.917 195.089 371.359 195.141 371.952C195.194 372.546 194.716 373.067 194.075 373.116ZM176.363 374.473L167.427 375.158C166.774 375.208 166.203 374.763 166.151 374.163C166.1 373.564 166.587 373.038 167.24 372.988L176.175 372.31C176.824 372.261 177.392 372.705 177.444 373.302C177.496 373.899 177.012 374.423 176.363 374.473ZM158.438 375.847L149.394 376.54C148.733 376.591 148.155 376.143 148.104 375.54C148.053 374.937 148.547 374.407 149.208 374.357L158.252 373.671C158.908 373.621 159.482 374.067 159.534 374.668C159.585 375.269 159.095 375.797 158.438 375.847ZM140.295 377.237L131.142 377.939C130.473 377.99 129.889 377.54 129.838 376.933C129.787 376.326 130.288 375.793 130.957 375.743L140.111 375.048C140.775 374.997 141.355 375.446 141.406 376.051C141.458 376.655 140.96 377.187 140.295 377.237ZM121.932 378.645L112.666 379.355C111.989 379.407 111.399 378.954 111.348 378.344C111.298 377.733 111.806 377.196 112.483 377.145L121.748 376.442C122.421 376.39 123.008 376.842 123.058 377.45C123.109 378.058 122.605 378.593 121.932 378.645ZM103.344 380.07L93.9636 380.788C93.278 380.841 92.6813 380.385 92.6312 379.771C92.5813 379.157 93.0967 378.617 93.7823 378.564L103.161 377.852C103.843 377.801 104.435 378.255 104.486 378.867C104.536 379.479 104.025 380.017 103.344 380.07ZM84.5271 381.253C84.4442 381.259 84.3594 381.259 84.2733 381.25C80.8494 380.892 77.6208 379.487 75.1866 377.294C74.7003 376.856 74.7099 376.145 75.2073 375.707C75.7055 375.268 76.5014 375.269 76.9865 375.707C79.0263 377.545 81.7302 378.724 84.5981 379.026C85.2834 379.098 85.7661 379.654 85.6768 380.268C85.5986 380.805 85.1082 381.209 84.5271 381.253ZM235.505 365.302C235.26 365.32 235.007 365.265 234.786 365.127C234.264 364.802 234.118 364.142 234.463 363.654C235.922 361.582 236.574 359.173 236.348 356.686C236.295 356.102 236.757 355.592 237.379 355.548C238.001 355.503 238.548 355.94 238.601 356.524C238.87 359.487 238.094 362.359 236.355 364.832C236.157 365.113 235.838 365.277 235.505 365.302ZM72.1804 370.074C71.506 370.123 70.8902 369.712 70.8174 369.11C70.7974 368.945 70.7614 368.802 70.7479 368.635L70.1066 360.621C70.0572 360.004 70.4731 359.459 71.1675 359.411C71.8616 359.363 72.3565 359.818 72.4059 360.434L73.0478 368.44C73.0591 368.58 73.2007 368.704 73.2174 368.842C73.2914 369.457 72.8559 370.019 72.1615 370.07C72.1461 370.071 72.195 370.073 72.1804 370.074ZM237.331 353.626C236.708 353.67 236.373 353.235 236.32 352.651L235.593 344.643C235.54 344.06 235.79 343.551 236.412 343.509C237.034 343.467 237.369 343.904 237.421 344.486L238.149 352.487C238.201 353.07 237.952 353.582 237.331 353.626ZM70.6687 353.184C69.9744 353.231 69.4787 352.774 69.4293 352.158L68.7528 343.704C68.7035 343.088 69.1193 342.548 69.8132 342.504C70.5068 342.46 71.0015 342.918 71.0508 343.533L71.728 351.979C71.7774 352.595 71.3626 353.138 70.6687 353.184ZM235.877 337.623C235.256 337.664 234.92 337.226 234.867 336.643L234.142 328.652C234.089 328.07 234.339 327.566 234.961 327.528C235.582 327.489 235.917 327.929 235.97 328.51L236.695 336.494C236.748 337.076 236.499 337.582 235.877 337.623ZM69.3157 336.291C68.6219 336.334 68.1263 335.874 68.0771 335.259L67.4021 326.823C67.353 326.209 67.7686 325.675 68.4622 325.634C69.1553 325.594 69.6498 326.055 69.6989 326.669L70.3746 335.097C70.4239 335.711 70.0091 336.248 69.3157 336.291ZM234.427 321.654C233.806 321.691 233.47 321.25 233.417 320.669L232.693 312.694C232.641 312.113 232.891 311.614 233.512 311.579C234.133 311.544 234.468 311.986 234.521 312.566L235.245 320.534C235.297 321.115 235.048 321.616 234.427 321.654ZM67.9655 319.434C67.2722 319.473 66.7768 319.01 66.7277 318.397L66.0542 309.979C66.0051 309.367 66.4209 308.838 67.1138 308.801C67.8066 308.765 68.3008 309.229 68.3499 309.841L69.0241 318.251C69.0732 318.864 68.6586 319.396 67.9655 319.434ZM232.98 305.717C232.359 305.751 232.023 305.307 231.97 304.727L231.248 296.768C231.196 296.189 231.446 295.695 232.067 295.663C232.687 295.631 233.022 296.076 233.075 296.655L233.797 304.607C233.85 305.186 233.601 305.683 232.98 305.717ZM66.6183 302.614C65.9253 302.65 65.4303 302.184 65.3814 301.571L64.7093 293.172C64.6604 292.56 65.076 292.037 65.7686 292.004C66.4609 291.972 66.9548 292.439 67.0039 293.05L67.6766 301.441C67.7255 302.053 67.3109 302.579 66.6183 302.614ZM231.535 289.813C230.915 289.843 230.579 289.397 230.527 288.818L229.806 280.875C229.753 280.297 230.004 279.808 230.624 279.779C231.245 279.751 231.579 280.199 231.632 280.777L232.353 288.712C232.405 289.291 232.156 289.782 231.535 289.813ZM65.2741 285.831C64.5816 285.862 64.0867 285.393 64.0378 284.782L63.3671 276.401C63.3182 275.791 63.7338 275.272 64.4259 275.244C65.1177 275.215 65.6114 275.686 65.6603 276.295L66.3315 284.668C66.3808 285.279 65.9661 285.8 65.2741 285.831ZM230.094 273.941C229.474 273.969 229.138 273.519 229.086 272.941L228.367 265.016C228.314 264.438 228.565 263.954 229.185 263.929C229.805 263.904 230.14 264.355 230.192 264.932L230.912 272.85C230.964 273.427 230.714 273.914 230.094 273.941ZM63.9327 269.084C63.2407 269.111 62.746 268.639 62.6972 268.029L62.1937 261.737C62.1335 260.986 62.165 260.228 62.2438 259.488C62.3088 258.882 62.9341 258.458 63.6222 258.527C64.3123 258.601 64.6966 259.154 64.6324 259.758C64.5657 260.378 64.4354 261.015 64.4859 261.645L64.99 267.932C65.0389 268.541 64.6244 269.056 63.9327 269.084ZM228.656 258.103C228.036 258.126 227.7 257.674 227.648 257.097L227.509 255.565C227.331 253.609 226.423 251.717 225.199 250.087C224.836 249.604 224.869 248.959 225.376 248.645C225.883 248.331 226.502 248.471 226.865 248.954C228.323 250.899 229.122 253.159 229.334 255.489L229.473 257.02C229.525 257.597 229.276 258.079 228.656 258.103ZM67.4704 253.369C67.1314 253.381 66.7846 253.273 66.5193 253.043C66.0179 252.611 65.998 251.914 66.4743 251.487C68.8563 249.351 72.0427 247.993 75.4433 247.66C76.1218 247.605 76.7542 248.028 76.8534 248.629C76.9519 249.231 76.4809 249.773 75.8011 249.841C72.9521 250.122 70.2836 251.262 68.2882 253.052C68.0642 253.254 67.7709 253.359 67.4704 253.369ZM219.189 245.778C219.054 245.783 218.914 245.765 218.777 245.722C217.39 245.288 215.949 245.093 214.493 245.142L210.646 245.271C210.019 245.292 209.469 244.84 209.417 244.261C209.365 243.682 209.831 243.197 210.458 243.176L214.305 243.049C216.039 242.992 217.757 243.226 219.411 243.745C220.012 243.933 220.356 244.528 220.18 245.073C220.046 245.494 219.641 245.763 219.189 245.778ZM202.019 245.562L193.341 245.854C192.707 245.875 192.151 245.42 192.099 244.838C192.048 244.256 192.52 243.767 193.155 243.746L201.832 243.46C202.462 243.439 203.015 243.893 203.066 244.473C203.118 245.053 202.649 245.54 202.019 245.562ZM184.613 246.148L175.832 246.443C175.19 246.465 174.628 246.007 174.577 245.422C174.526 244.836 175.005 244.344 175.647 244.323L184.426 244.034C185.064 244.013 185.623 244.468 185.674 245.052C185.725 245.636 185.25 246.126 184.613 246.148ZM167 246.74L158.115 247.04C157.465 247.061 156.897 246.601 156.846 246.012C156.796 245.423 157.281 244.928 157.93 244.906L166.815 244.614C167.46 244.592 168.024 245.051 168.075 245.638C168.126 246.225 167.645 246.719 167 246.74ZM149.177 247.34L140.186 247.643C139.528 247.665 138.955 247.202 138.904 246.61C138.854 246.017 139.346 245.519 140.003 245.497L148.993 245.201C149.646 245.179 150.216 245.641 150.267 246.231C150.318 246.822 149.829 247.318 149.177 247.34ZM131.14 247.948L122.04 248.254C121.375 248.276 120.795 247.811 120.745 247.214C120.695 246.618 121.194 246.117 121.859 246.095L130.957 245.795C131.618 245.774 132.195 246.237 132.245 246.832C132.295 247.426 131.8 247.925 131.14 247.948ZM112.885 248.562L103.675 248.872C103.002 248.895 102.416 248.426 102.366 247.826C102.316 247.226 102.822 246.722 103.495 246.7L112.705 246.396C113.374 246.374 113.956 246.841 114.006 247.439C114.056 248.037 113.554 248.539 112.885 248.562ZM94.4091 249.184L85.0865 249.498C84.405 249.521 83.8124 249.05 83.7632 248.446C83.7139 247.842 84.2267 247.335 84.9082 247.312L94.23 247.005C94.907 246.983 95.4957 247.452 95.5451 248.054C95.5947 248.655 95.0861 249.161 94.4091 249.184Z" fill="white"/>
</g>
<path d="M244.078 278.285C243.098 277.725 241.924 277.637 240.899 278.052L208.175 291.161C203.481 293.061 200.276 297.513 200.701 302.302L201.831 315.029C202.283 320.124 206.683 324.382 212.074 325.494L245.939 332.438C247.009 332.658 248.169 332.395 248.983 331.727C249.796 331.059 250.27 330.065 250.176 329.044L245.754 280.864C245.657 279.81 245.058 278.845 244.078 278.285Z" fill="#546286"/>
<path d="M222.469 307.219C222.786 310.74 219.974 313.771 216.178 313.987C212.372 314.205 209.024 311.512 208.708 307.974C208.392 304.438 211.228 301.409 215.032 301.209C218.826 301.009 222.152 303.699 222.469 307.219Z" fill="#1D191F"/>
<defs>
<linearGradient id="paint0_linear_1602_373" x1="115.135" y1="256.403" x2="119.972" y2="238.334" gradientUnits="userSpaceOnUse">
<stop stop-color="#FF9085"/>
<stop offset="1" stop-color="#FB6FBB"/>
</linearGradient>
<linearGradient id="paint1_linear_1602_373" x1="111.547" y1="254.071" x2="115.939" y2="237.666" gradientUnits="userSpaceOnUse">
<stop stop-color="#FF9085"/>
<stop offset="1" stop-color="#FB6FBB"/>
</linearGradient>
<linearGradient id="paint2_linear_1602_373" x1="115.579" y1="255.621" x2="119.973" y2="239.208" gradientUnits="userSpaceOnUse">
<stop stop-color="#FF9085"/>
<stop offset="1" stop-color="#FB6FBB"/>
</linearGradient>
<linearGradient id="paint3_linear_1602_373" x1="119.565" y1="257.175" x2="123.961" y2="240.753" gradientUnits="userSpaceOnUse">
<stop stop-color="#FF9085"/>
<stop offset="1" stop-color="#FB6FBB"/>
</linearGradient>
<linearGradient id="paint4_linear_1602_373" x1="116.746" y1="252.677" x2="119.513" y2="242.341" gradientUnits="userSpaceOnUse">
<stop stop-color="#FF9085"/>
<stop offset="1" stop-color="#FB6FBB"/>
</linearGradient>
<linearGradient id="paint5_linear_1602_373" x1="156.194" y1="284.063" x2="234.101" y2="29.2038" gradientUnits="userSpaceOnUse">
<stop stop-color="#FB6FBB"/>
<stop offset="1" stop-color="#FF9085"/>
</linearGradient>
<linearGradient id="paint6_linear_1602_373" x1="165.266" y1="276.82" x2="174.962" y2="240.598" gradientUnits="userSpaceOnUse">
<stop stop-color="#FB6FBB"/>
<stop offset="1" stop-color="#FF9085"/>
</linearGradient>
<linearGradient id="paint7_linear_1602_373" x1="187.863" y1="226.13" x2="200.488" y2="178.965" gradientUnits="userSpaceOnUse">
<stop stop-color="#FB6FBB"/>
<stop offset="1" stop-color="#FF9085"/>
</linearGradient>
<linearGradient id="paint8_linear_1602_373" x1="144.201" y1="156.889" x2="148.108" y2="131.515" gradientUnits="userSpaceOnUse">
<stop stop-color="#FF9085"/>
<stop offset="1" stop-color="#FB6FBB"/>
</linearGradient>
<linearGradient id="paint9_linear_1602_373" x1="90.3434" y1="220.444" x2="32.4415" y2="240.289" gradientUnits="userSpaceOnUse">
<stop stop-color="#FCB148"/>
<stop offset="0.0521" stop-color="#FDBA46"/>
<stop offset="0.1424" stop-color="#FFC244"/>
<stop offset="0.3183" stop-color="#FFC444"/>
<stop offset="0.4849" stop-color="#FDB946"/>
<stop offset="0.7754" stop-color="#F99C4D"/>
<stop offset="0.8658" stop-color="#F8924F"/>
<stop offset="1" stop-color="#F8924F"/>
</linearGradient>
<linearGradient id="paint10_linear_1602_373" x1="137.801" y1="165.766" x2="90.8971" y2="276.274" gradientUnits="userSpaceOnUse">
<stop stop-color="#FFDB44"/>
<stop offset="1" stop-color="#FEEF06"/>
</linearGradient>
<linearGradient id="paint11_linear_1602_373" x1="128.168" y1="280" x2="119.272" y2="228.102" gradientUnits="userSpaceOnUse">
<stop stop-color="#FCB148"/>
<stop offset="0.0521" stop-color="#FDBA46"/>
<stop offset="0.1424" stop-color="#FFC244"/>
<stop offset="0.3183" stop-color="#FFC444"/>
<stop offset="0.4849" stop-color="#FDB946"/>
<stop offset="0.7754" stop-color="#F99C4D"/>
<stop offset="0.8658" stop-color="#F8924F"/>
<stop offset="1" stop-color="#F8924F"/>
</linearGradient>
<linearGradient id="paint12_linear_1602_373" x1="105.091" y1="178.52" x2="123.603" y2="252.613" gradientUnits="userSpaceOnUse">
<stop stop-color="#FFDB44"/>
<stop offset="1" stop-color="#FEEF06"/>
</linearGradient>
<linearGradient id="paint13_linear_1602_373" x1="94.4831" y1="201.69" x2="131.757" y2="286.191" gradientUnits="userSpaceOnUse">
<stop stop-color="#FCB148"/>
<stop offset="0.0521" stop-color="#FDBA46"/>
<stop offset="0.1424" stop-color="#FFC244"/>
<stop offset="0.3183" stop-color="#FFC444"/>
<stop offset="0.4849" stop-color="#FDB946"/>
<stop offset="0.7754" stop-color="#F99C4D"/>
<stop offset="0.8658" stop-color="#F8924F"/>
<stop offset="1" stop-color="#F8924F"/>
</linearGradient>
<linearGradient id="paint14_linear_1602_373" x1="86.4633" y1="118.214" x2="47.4656" y2="131.579" gradientUnits="userSpaceOnUse">
<stop stop-color="#FCB148"/>
<stop offset="0.0521" stop-color="#FDBA46"/>
<stop offset="0.1424" stop-color="#FFC244"/>
<stop offset="0.3183" stop-color="#FFC444"/>
<stop offset="0.4849" stop-color="#FDB946"/>
<stop offset="0.7754" stop-color="#F99C4D"/>
<stop offset="0.8658" stop-color="#F8924F"/>
<stop offset="1" stop-color="#F8924F"/>
</linearGradient>
<linearGradient id="paint15_linear_1602_373" x1="118.427" y1="81.388" x2="86.8363" y2="155.816" gradientUnits="userSpaceOnUse">
<stop stop-color="#FFDB44"/>
<stop offset="1" stop-color="#FEEF06"/>
</linearGradient>
<linearGradient id="paint16_linear_1602_373" x1="96.3722" y1="89.9773" x2="108.84" y2="139.88" gradientUnits="userSpaceOnUse">
<stop stop-color="#FFDB44"/>
<stop offset="1" stop-color="#FEEF06"/>
</linearGradient>
<linearGradient id="paint17_linear_1602_373" x1="89.2498" y1="105.583" x2="114.355" y2="162.495" gradientUnits="userSpaceOnUse">
<stop stop-color="#FCB148"/>
<stop offset="0.0521" stop-color="#FDBA46"/>
<stop offset="0.1424" stop-color="#FFC244"/>
<stop offset="0.3183" stop-color="#FFC444"/>
<stop offset="0.4849" stop-color="#FDB946"/>
<stop offset="0.7754" stop-color="#F99C4D"/>
<stop offset="0.8658" stop-color="#F8924F"/>
<stop offset="1" stop-color="#F8924F"/>
</linearGradient>
</defs>
</svg>
