<svg width="464" height="121" viewBox="0 0 464 121" fill="none" xmlns="http://www.w3.org/2000/svg">
<rect width="145" height="121" fill="#00A0F1"/>
<path d="M34.3 46.78C37.8 46.78 40.9733 47.5967 43.82 49.23C46.7133 50.8167 48.9767 53.08 50.61 56.02C52.2433 58.9133 53.06 62.2967 53.06 66.17C53.06 70.0433 52.2433 73.45 50.61 76.39C48.9767 79.2833 46.7133 81.5467 43.82 83.18C40.9733 84.7667 37.8 85.56 34.3 85.56C29.12 85.56 25.1767 83.9267 22.47 80.66V85H12.04V33.06H22.96V51.33C25.7133 48.2967 29.4933 46.78 34.3 46.78ZM32.41 76.6C35.21 76.6 37.4967 75.6667 39.27 73.8C41.09 71.8867 42 69.3433 42 66.17C42 62.9967 41.09 60.4767 39.27 58.61C37.4967 56.6967 35.21 55.74 32.41 55.74C29.61 55.74 27.3 56.6967 25.48 58.61C23.7067 60.4767 22.82 62.9967 22.82 66.17C22.82 69.3433 23.7067 71.8867 25.48 73.8C27.3 75.6667 29.61 76.6 32.41 76.6ZM60.3701 47.34H71.2901V85H60.3701V47.34ZM65.8301 42.09C63.8234 42.09 62.1901 41.5067 60.9301 40.34C59.6701 39.1733 59.0401 37.7267 59.0401 36C59.0401 34.2733 59.6701 32.8267 60.9301 31.66C62.1901 30.4933 63.8234 29.91 65.8301 29.91C67.8367 29.91 69.4701 30.47 70.7301 31.59C71.9901 32.71 72.6201 34.11 72.6201 35.79C72.6201 37.61 71.9901 39.1267 70.7301 40.34C69.4701 41.5067 67.8367 42.09 65.8301 42.09ZM104.315 46.78C108.981 46.78 112.738 48.18 115.585 50.98C118.478 53.78 119.925 57.9333 119.925 63.44V85H109.005V65.12C109.005 62.1333 108.351 59.9167 107.045 58.47C105.738 56.9767 103.848 56.23 101.375 56.23C98.6214 56.23 96.4281 57.0933 94.7948 58.82C93.1614 60.5 92.3448 63.02 92.3448 66.38V85H81.4248V47.34H91.8548V51.75C93.3014 50.1633 95.0981 48.95 97.2448 48.11C99.3914 47.2233 101.748 46.78 104.315 46.78ZM133.953 85.56C132.04 85.56 130.43 84.9067 129.123 83.6C127.817 82.2933 127.163 80.66 127.163 78.7C127.163 76.6933 127.817 75.0833 129.123 73.87C130.43 72.61 132.04 71.98 133.953 71.98C135.867 71.98 137.477 72.61 138.783 73.87C140.09 75.0833 140.743 76.6933 140.743 78.7C140.743 80.66 140.09 82.2933 138.783 83.6C137.477 84.9067 135.867 85.56 133.953 85.56Z" fill="white"/>
<path d="M170.404 46.78C173.904 46.78 177.077 47.5967 179.924 49.23C182.817 50.8167 185.08 53.08 186.714 56.02C188.347 58.9133 189.164 62.2967 189.164 66.17C189.164 70.0433 188.347 73.45 186.714 76.39C185.08 79.2833 182.817 81.5467 179.924 83.18C177.077 84.7667 173.904 85.56 170.404 85.56C165.597 85.56 161.817 84.0433 159.064 81.01V98.58H148.144V47.34H158.574V51.68C161.28 48.4133 165.224 46.78 170.404 46.78ZM168.514 76.6C171.314 76.6 173.6 75.6667 175.374 73.8C177.194 71.8867 178.104 69.3433 178.104 66.17C178.104 62.9967 177.194 60.4767 175.374 58.61C173.6 56.6967 171.314 55.74 168.514 55.74C165.714 55.74 163.404 56.6967 161.584 58.61C159.81 60.4767 158.924 62.9967 158.924 66.17C158.924 69.3433 159.81 71.8867 161.584 73.8C163.404 75.6667 165.714 76.6 168.514 76.6ZM211.048 46.78C216.882 46.78 221.362 48.18 224.488 50.98C227.615 53.7333 229.178 57.91 229.178 63.51V85H218.958V80.31C216.905 83.81 213.078 85.56 207.478 85.56C204.585 85.56 202.065 85.07 199.918 84.09C197.818 83.11 196.208 81.7567 195.088 80.03C193.968 78.3033 193.408 76.3433 193.408 74.15C193.408 70.65 194.715 67.8967 197.328 65.89C199.988 63.8833 204.072 62.88 209.578 62.88H218.258C218.258 60.5 217.535 58.68 216.088 57.42C214.642 56.1133 212.472 55.46 209.578 55.46C207.572 55.46 205.588 55.7867 203.628 56.44C201.715 57.0467 200.082 57.8867 198.728 58.96L194.808 51.33C196.862 49.8833 199.312 48.7633 202.158 47.97C205.052 47.1767 208.015 46.78 211.048 46.78ZM210.208 78.21C212.075 78.21 213.732 77.79 215.178 76.95C216.625 76.0633 217.652 74.78 218.258 73.1V69.25H210.768C206.288 69.25 204.048 70.72 204.048 73.66C204.048 75.06 204.585 76.18 205.658 77.02C206.778 77.8133 208.295 78.21 210.208 78.21ZM249.491 52.31C250.798 50.49 252.548 49.1133 254.741 48.18C256.981 47.2467 259.548 46.78 262.441 46.78V56.86C261.228 56.7667 260.411 56.72 259.991 56.72C256.865 56.72 254.415 57.6067 252.641 59.38C250.868 61.1067 249.981 63.72 249.981 67.22V85H239.061V47.34H249.491V52.31ZM294.523 83.18C293.45 83.9733 292.12 84.58 290.533 85C288.993 85.3733 287.36 85.56 285.633 85.56C281.153 85.56 277.677 84.4167 275.203 82.13C272.777 79.8433 271.563 76.4833 271.563 72.05V56.58H265.753V48.18H271.563V39.01H282.483V48.18H291.863V56.58H282.483V71.91C282.483 73.4967 282.88 74.7333 283.673 75.62C284.513 76.46 285.68 76.88 287.173 76.88C288.9 76.88 290.37 76.4133 291.583 75.48L294.523 83.18ZM323.543 46.78C328.21 46.78 331.967 48.18 334.813 50.98C337.707 53.78 339.153 57.9333 339.153 63.44V85H328.233V65.12C328.233 62.1333 327.58 59.9167 326.273 58.47C324.967 56.9767 323.077 56.23 320.603 56.23C317.85 56.23 315.657 57.0933 314.023 58.82C312.39 60.5 311.573 63.02 311.573 66.38V85H300.653V47.34H311.083V51.75C312.53 50.1633 314.327 48.95 316.473 48.11C318.62 47.2233 320.977 46.78 323.543 46.78ZM386.352 66.31C386.352 66.45 386.282 67.43 386.142 69.25H357.652C358.165 71.5833 359.379 73.4267 361.292 74.78C363.205 76.1333 365.585 76.81 368.432 76.81C370.392 76.81 372.119 76.53 373.612 75.97C375.152 75.3633 376.575 74.43 377.882 73.17L383.692 79.47C380.145 83.53 374.965 85.56 368.152 85.56C363.905 85.56 360.149 84.7433 356.882 83.11C353.615 81.43 351.095 79.12 349.322 76.18C347.549 73.24 346.662 69.9033 346.662 66.17C346.662 62.4833 347.525 59.17 349.252 56.23C351.025 53.2433 353.429 50.9333 356.462 49.3C359.542 47.62 362.972 46.78 366.752 46.78C370.439 46.78 373.775 47.5733 376.762 49.16C379.749 50.7467 382.082 53.0333 383.762 56.02C385.489 58.96 386.352 62.39 386.352 66.31ZM366.822 55.04C364.349 55.04 362.272 55.74 360.592 57.14C358.912 58.54 357.885 60.4533 357.512 62.88H376.062C375.689 60.5 374.662 58.61 372.982 57.21C371.302 55.7633 369.249 55.04 366.822 55.04ZM404.052 52.31C405.359 50.49 407.109 49.1133 409.302 48.18C411.542 47.2467 414.109 46.78 417.002 46.78V56.86C415.789 56.7667 414.972 56.72 414.552 56.72C411.425 56.72 408.975 57.6067 407.202 59.38C405.429 61.1067 404.542 63.72 404.542 67.22V85H393.622V47.34H404.052V52.31ZM436.302 85.56C433.175 85.56 430.118 85.1867 427.132 84.44C424.145 83.6467 421.765 82.6667 419.992 81.5L423.632 73.66C425.312 74.7333 427.342 75.62 429.722 76.32C432.102 76.9733 434.435 77.3 436.722 77.3C441.342 77.3 443.652 76.1567 443.652 73.87C443.652 72.7967 443.022 72.0267 441.762 71.56C440.502 71.0933 438.565 70.6967 435.952 70.37C432.872 69.9033 430.328 69.3667 428.322 68.76C426.315 68.1533 424.565 67.08 423.072 65.54C421.625 64 420.902 61.8067 420.902 58.96C420.902 56.58 421.578 54.48 422.932 52.66C424.332 50.7933 426.338 49.3467 428.952 48.32C431.612 47.2933 434.738 46.78 438.332 46.78C440.992 46.78 443.628 47.0833 446.242 47.69C448.902 48.25 451.095 49.0433 452.822 50.07L449.182 57.84C445.868 55.9733 442.252 55.04 438.332 55.04C435.998 55.04 434.248 55.3667 433.082 56.02C431.915 56.6733 431.332 57.5133 431.332 58.54C431.332 59.7067 431.962 60.5233 433.222 60.99C434.482 61.4567 436.488 61.9 439.242 62.32C442.322 62.8333 444.842 63.3933 446.802 64C448.762 64.56 450.465 65.61 451.912 67.15C453.358 68.69 454.082 70.8367 454.082 73.59C454.082 75.9233 453.382 78 451.982 79.82C450.582 81.64 448.528 83.0633 445.822 84.09C443.162 85.07 439.988 85.56 436.302 85.56Z" fill="#363636"/>
</svg>
